<svg width="6" height="11" viewBox="0 0 6 11" fill="none" xmlns="http://www.w3.org/2000/svg">
<path fill-rule="evenodd" clip-rule="evenodd" d="M5.70721 10.2069C5.89468 10.0194 6 9.76508 6 9.49992C6 9.23475 5.89468 8.98045 5.70721 8.79292L2.41421 5.49992L5.70721 2.20692C5.88937 2.01832 5.99017 1.76571 5.98789 1.50352C5.98561 1.24132 5.88044 0.990509 5.69503 0.805101C5.50962 0.619692 5.25881 0.514523 4.99661 0.512245C4.73442 0.509966 4.48182 0.610761 4.29321 0.792919L0.293214 4.79292C0.105743 4.98045 0.000427246 5.23475 0.000427246 5.49992C0.000427246 5.76508 0.105743 6.01939 0.293214 6.20692L4.29321 10.2069C4.48074 10.3944 4.73505 10.4997 5.00021 10.4997C5.26538 10.4997 5.51969 10.3944 5.70721 10.2069Z" fill="white"/>
</svg>
