<svg width="100" height="57" viewBox="0 0 100 57" fill="none" xmlns="http://www.w3.org/2000/svg">
<g filter="url(#filter0_i_136_1934)">
<rect width="100" height="57" rx="11" fill="#E9A800"/>
<g filter="url(#filter1_d_136_1934)">
<g clip-path="url(#clip0_136_1934)">
<rect width="100" height="47" rx="11" fill="#E9A800"/>
<g filter="url(#filter2_d_136_1934)">
<path d="M8.79198 18.117C8.46265 18.117 8.21131 18.026 8.03798 17.844C7.86465 17.662 7.77798 17.4063 7.77798 17.077V9.888C7.77798 9.55 7.86898 9.29 8.05098 9.108C8.23298 8.926 8.49298 8.835 8.83098 8.835H14.928C15.266 8.835 15.526 8.926 15.708 9.108C15.89 9.29 15.981 9.55 15.981 9.888V17.077C15.981 17.4063 15.8943 17.662 15.721 17.844C15.5476 18.026 15.3006 18.117 14.98 18.117C14.6506 18.117 14.3993 18.026 14.226 17.844C14.0526 17.662 13.966 17.4063 13.966 17.077V10.499H9.79298V17.077C9.79298 17.4063 9.70631 17.662 9.53298 17.844C9.36831 18.026 9.12131 18.117 8.79198 18.117ZM20.823 18.143C20.1383 18.143 19.5403 18.0087 19.029 17.74C18.5263 17.4713 18.1363 17.0857 17.859 16.583C17.5816 16.0803 17.443 15.4867 17.443 14.802C17.443 14.2907 17.521 13.8313 17.677 13.424C17.833 13.0167 18.0583 12.67 18.353 12.384C18.6563 12.0893 19.016 11.8683 19.432 11.721C19.848 11.565 20.3116 11.487 20.823 11.487C21.5076 11.487 22.1013 11.6213 22.604 11.89C23.1153 12.1587 23.5096 12.54 23.787 13.034C24.073 13.528 24.216 14.1173 24.216 14.802C24.216 15.322 24.1336 15.7857 23.969 16.193C23.813 16.6003 23.5876 16.9513 23.293 17.246C22.9983 17.5407 22.6386 17.766 22.214 17.922C21.798 18.0693 21.3343 18.143 20.823 18.143ZM20.823 16.674C21.109 16.674 21.356 16.6047 21.564 16.466C21.772 16.3273 21.9366 16.1237 22.058 15.855C22.1793 15.5777 22.24 15.2267 22.24 14.802C22.24 14.1693 22.11 13.7057 21.85 13.411C21.59 13.1077 21.2476 12.956 20.823 12.956C20.5456 12.956 20.2986 13.021 20.082 13.151C19.874 13.281 19.7093 13.4847 19.588 13.762C19.4753 14.0307 19.419 14.3773 19.419 14.802C19.419 15.4347 19.549 15.907 19.809 16.219C20.069 16.5223 20.407 16.674 20.823 16.674ZM26.5887 18.117C26.268 18.117 26.021 18.0303 25.8477 17.857C25.683 17.6837 25.6007 17.4367 25.6007 17.116V12.722C25.6007 12.3667 25.6917 12.0937 25.8737 11.903C26.0643 11.7123 26.3373 11.617 26.6927 11.617H30.8137C31.169 11.617 31.442 11.7123 31.6327 11.903C31.8233 12.0937 31.9187 12.3667 31.9187 12.722V17.116C31.9187 17.4367 31.832 17.6837 31.6587 17.857C31.4853 18.0303 31.2427 18.117 30.9307 18.117C30.61 18.117 30.3673 18.0303 30.2027 17.857C30.038 17.6837 29.9557 17.4367 29.9557 17.116V13.138H27.5637V17.116C27.5637 17.4367 27.4813 17.6837 27.3167 17.857C27.152 18.0303 26.9093 18.117 26.5887 18.117ZM34.6121 20.457C34.2914 20.457 34.0444 20.3703 33.8711 20.197C33.7064 20.0323 33.6241 19.7853 33.6241 19.456V12.501C33.6241 12.1803 33.7064 11.9377 33.8711 11.773C34.0444 11.5997 34.2828 11.513 34.5861 11.513C34.9068 11.513 35.1494 11.5997 35.3141 11.773C35.4788 11.9377 35.5611 12.1803 35.5611 12.501V13.385L35.4181 12.878C35.5481 12.462 35.8081 12.1283 36.1981 11.877C36.5968 11.617 37.0518 11.487 37.5631 11.487C38.1178 11.487 38.6031 11.6213 39.0191 11.89C39.4438 12.1587 39.7731 12.54 40.0071 13.034C40.2411 13.528 40.3581 14.1173 40.3581 14.802C40.3581 15.4867 40.2411 16.0803 40.0071 16.583C39.7731 17.0857 39.4481 17.4713 39.0321 17.74C38.6161 18.0087 38.1264 18.143 37.5631 18.143C37.0604 18.143 36.6141 18.0217 36.2241 17.779C35.8341 17.5277 35.5698 17.2027 35.4311 16.804H35.5871V19.456C35.5871 19.7853 35.5004 20.0323 35.3271 20.197C35.1624 20.3703 34.9241 20.457 34.6121 20.457ZM36.9781 16.674C37.2554 16.674 37.4981 16.6047 37.7061 16.466C37.9228 16.3273 38.0874 16.1237 38.2001 15.855C38.3214 15.5777 38.3821 15.2267 38.3821 14.802C38.3821 14.1693 38.2521 13.7057 37.9921 13.411C37.7321 13.1077 37.3941 12.956 36.9781 12.956C36.7008 12.956 36.4538 13.021 36.2371 13.151C36.0291 13.281 35.8644 13.4847 35.7431 13.762C35.6218 14.0307 35.5611 14.3773 35.5611 14.802C35.5611 15.4347 35.6911 15.907 35.9511 16.219C36.2111 16.5223 36.5534 16.674 36.9781 16.674ZM44.8298 18.143C44.1451 18.143 43.5471 18.0087 43.0358 17.74C42.5331 17.4713 42.1431 17.0857 41.8658 16.583C41.5885 16.0803 41.4498 15.4867 41.4498 14.802C41.4498 14.2907 41.5278 13.8313 41.6838 13.424C41.8398 13.0167 42.0651 12.67 42.3598 12.384C42.6631 12.0893 43.0228 11.8683 43.4388 11.721C43.8548 11.565 44.3185 11.487 44.8298 11.487C45.5145 11.487 46.1081 11.6213 46.6108 11.89C47.1221 12.1587 47.5165 12.54 47.7938 13.034C48.0798 13.528 48.2228 14.1173 48.2228 14.802C48.2228 15.322 48.1405 15.7857 47.9758 16.193C47.8198 16.6003 47.5945 16.9513 47.2998 17.246C47.0051 17.5407 46.6455 17.766 46.2208 17.922C45.8048 18.0693 45.3411 18.143 44.8298 18.143ZM44.8298 16.674C45.1158 16.674 45.3628 16.6047 45.5708 16.466C45.7788 16.3273 45.9435 16.1237 46.0648 15.855C46.1861 15.5777 46.2468 15.2267 46.2468 14.802C46.2468 14.1693 46.1168 13.7057 45.8568 13.411C45.5968 13.1077 45.2545 12.956 44.8298 12.956C44.5525 12.956 44.3055 13.021 44.0888 13.151C43.8808 13.281 43.7161 13.4847 43.5948 13.762C43.4821 14.0307 43.4258 14.3773 43.4258 14.802C43.4258 15.4347 43.5558 15.907 43.8158 16.219C44.0758 16.5223 44.4138 16.674 44.8298 16.674ZM52.7535 18.143C52.0515 18.143 51.4405 18.0043 50.9205 17.727C50.4005 17.441 49.9975 17.0207 49.7115 16.466C49.4342 15.9027 49.2955 15.2093 49.2955 14.386V13.463C49.2955 12.5963 49.4298 11.8727 49.6985 11.292C49.9758 10.7027 50.3832 10.2303 50.9205 9.875C51.4578 9.51967 52.1208 9.25533 52.9095 9.082L54.4695 8.718C54.7382 8.65733 54.9635 8.679 55.1455 8.783C55.3275 8.87833 55.4445 9.056 55.4965 9.316C55.5485 9.576 55.5052 9.79267 55.3665 9.966C55.2365 10.1393 55.0372 10.252 54.7685 10.304L53.0525 10.681C52.6365 10.7763 52.2855 10.9237 51.9995 11.123C51.7135 11.3223 51.4968 11.5737 51.3495 11.877C51.2022 12.1717 51.1285 12.5227 51.1285 12.93V13.736H50.8815C50.9595 13.372 51.0982 13.0383 51.2975 12.735C51.5055 12.4317 51.7785 12.1933 52.1165 12.02C52.4632 11.838 52.8705 11.747 53.3385 11.747C53.8672 11.747 54.3352 11.8727 54.7425 12.124C55.1498 12.3753 55.4705 12.735 55.7045 13.203C55.9472 13.6623 56.0685 14.2127 56.0685 14.854C56.0685 15.5213 55.9298 16.102 55.6525 16.596C55.3752 17.09 54.9895 17.4713 54.4955 17.74C54.0015 18.0087 53.4208 18.143 52.7535 18.143ZM52.6885 16.674C52.9918 16.674 53.2475 16.609 53.4555 16.479C53.6635 16.3403 53.8195 16.1453 53.9235 15.894C54.0362 15.634 54.0925 15.3177 54.0925 14.945C54.0925 14.3817 53.9668 13.9527 53.7155 13.658C53.4728 13.3547 53.1262 13.203 52.6755 13.203C52.3808 13.203 52.1252 13.2723 51.9085 13.411C51.7005 13.541 51.5402 13.7317 51.4275 13.983C51.3235 14.2343 51.2715 14.5377 51.2715 14.893C51.2715 15.4737 51.3928 15.9157 51.6355 16.219C51.8782 16.5223 52.2292 16.674 52.6885 16.674ZM60.5212 18.143C59.8365 18.143 59.2385 18.0087 58.7272 17.74C58.2245 17.4713 57.8345 17.0857 57.5572 16.583C57.2799 16.0803 57.1412 15.4867 57.1412 14.802C57.1412 14.2907 57.2192 13.8313 57.3752 13.424C57.5312 13.0167 57.7565 12.67 58.0512 12.384C58.3545 12.0893 58.7142 11.8683 59.1302 11.721C59.5462 11.565 60.0099 11.487 60.5212 11.487C61.2059 11.487 61.7995 11.6213 62.3022 11.89C62.8135 12.1587 63.2079 12.54 63.4852 13.034C63.7712 13.528 63.9142 14.1173 63.9142 14.802C63.9142 15.322 63.8319 15.7857 63.6672 16.193C63.5112 16.6003 63.2859 16.9513 62.9912 17.246C62.6965 17.5407 62.3369 17.766 61.9122 17.922C61.4962 18.0693 61.0325 18.143 60.5212 18.143ZM60.5212 16.674C60.8072 16.674 61.0542 16.6047 61.2622 16.466C61.4702 16.3273 61.6349 16.1237 61.7562 15.855C61.8775 15.5777 61.9382 15.2267 61.9382 14.802C61.9382 14.1693 61.8082 13.7057 61.5482 13.411C61.2882 13.1077 60.9459 12.956 60.5212 12.956C60.2439 12.956 59.9969 13.021 59.7802 13.151C59.5722 13.281 59.4075 13.4847 59.2862 13.762C59.1735 14.0307 59.1172 14.3773 59.1172 14.802C59.1172 15.4347 59.2472 15.907 59.5072 16.219C59.7672 16.5223 60.1052 16.674 60.5212 16.674ZM66.2479 18C65.9446 18 65.7106 17.9177 65.5459 17.753C65.3813 17.5883 65.2989 17.35 65.2989 17.038V12.579C65.2989 12.267 65.3813 12.0287 65.5459 11.864C65.7106 11.6993 65.9446 11.617 66.2479 11.617H68.9259C69.5066 11.617 69.9703 11.6863 70.3169 11.825C70.6723 11.955 70.9279 12.1457 71.0839 12.397C71.2399 12.6397 71.3179 12.9387 71.3179 13.294C71.3179 13.684 71.1836 14.0177 70.9149 14.295C70.6463 14.5637 70.2909 14.7327 69.8489 14.802V14.607C70.4296 14.6503 70.8586 14.815 71.1359 15.101C71.4133 15.387 71.5519 15.7553 71.5519 16.206C71.5519 16.752 71.3353 17.1897 70.9019 17.519C70.4773 17.8397 69.8533 18 69.0299 18H66.2479ZM67.1059 16.83H68.8349C69.1469 16.83 69.3809 16.7693 69.5369 16.648C69.7016 16.518 69.7839 16.3273 69.7839 16.076C69.7839 15.8247 69.7016 15.6383 69.5369 15.517C69.3809 15.387 69.1469 15.322 68.8349 15.322H67.1059V16.83ZM67.1059 14.165H68.7179C68.9779 14.165 69.1816 14.1043 69.3289 13.983C69.4763 13.853 69.5499 13.6797 69.5499 13.463C69.5499 13.2377 69.4763 13.0687 69.3289 12.956C69.1816 12.8433 68.9779 12.787 68.7179 12.787H67.1059V14.165ZM75.0106 18.143C74.5426 18.143 74.1223 18.052 73.7496 17.87C73.377 17.688 73.0866 17.441 72.8786 17.129C72.6706 16.817 72.5666 16.466 72.5666 16.076C72.5666 15.608 72.688 15.2397 72.9306 14.971C73.1733 14.6937 73.5676 14.4987 74.1136 14.386C74.6596 14.2647 75.3833 14.204 76.2846 14.204H76.9736V15.218H76.2976C75.8556 15.218 75.496 15.244 75.2186 15.296C74.95 15.3393 74.755 15.4173 74.6336 15.53C74.521 15.6427 74.4646 15.7987 74.4646 15.998C74.4646 16.2407 74.547 16.44 74.7116 16.596C74.885 16.752 75.132 16.83 75.4526 16.83C75.704 16.83 75.925 16.7737 76.1156 16.661C76.315 16.5397 76.471 16.3793 76.5836 16.18C76.6963 15.972 76.7526 15.738 76.7526 15.478V13.983C76.7526 13.6017 76.666 13.333 76.4926 13.177C76.3193 13.0123 76.0246 12.93 75.6086 12.93C75.3746 12.93 75.119 12.9603 74.8416 13.021C74.573 13.073 74.274 13.164 73.9446 13.294C73.754 13.3807 73.585 13.4023 73.4376 13.359C73.2903 13.307 73.1776 13.2203 73.0996 13.099C73.0216 12.969 72.9826 12.8303 72.9826 12.683C72.9826 12.527 73.026 12.3797 73.1126 12.241C73.1993 12.0937 73.3423 11.9853 73.5416 11.916C73.949 11.7513 74.3303 11.6387 74.6856 11.578C75.0496 11.5173 75.3833 11.487 75.6866 11.487C76.354 11.487 76.9 11.5867 77.3246 11.786C77.758 11.9767 78.083 12.2757 78.2996 12.683C78.5163 13.0817 78.6246 13.5973 78.6246 14.23V17.116C78.6246 17.4367 78.5466 17.6837 78.3906 17.857C78.2346 18.0303 78.0093 18.117 77.7146 18.117C77.42 18.117 77.1903 18.0303 77.0256 17.857C76.8696 17.6837 76.7916 17.4367 76.7916 17.116V16.635L76.8826 16.713C76.8306 17.0077 76.718 17.2633 76.5446 17.48C76.38 17.688 76.1676 17.8527 75.9076 17.974C75.6476 18.0867 75.3486 18.143 75.0106 18.143ZM82.6318 18.117C82.3198 18.117 82.0771 18.0303 81.9038 17.857C81.7391 17.6837 81.6568 17.4367 81.6568 17.116V13.151H80.2528C79.7068 13.151 79.4338 12.8953 79.4338 12.384C79.4338 12.1413 79.5031 11.955 79.6418 11.825C79.7891 11.6863 79.9928 11.617 80.2528 11.617H85.0108C85.5654 11.617 85.8428 11.8727 85.8428 12.384C85.8428 12.6353 85.7691 12.826 85.6218 12.956C85.4831 13.086 85.2794 13.151 85.0108 13.151H83.6198V17.116C83.6198 17.4367 83.5374 17.6837 83.3728 17.857C83.2081 18.0303 82.9611 18.117 82.6318 18.117ZM87.6268 18C87.3235 18 87.0895 17.9177 86.9248 17.753C86.7602 17.5883 86.6778 17.35 86.6778 17.038V12.501C86.6778 12.1717 86.7602 11.9247 86.9248 11.76C87.0982 11.5953 87.3452 11.513 87.6658 11.513C87.9778 11.513 88.2162 11.5953 88.3808 11.76C88.5542 11.9247 88.6408 12.1717 88.6408 12.501V13.645H90.1748C91.0328 13.645 91.6785 13.827 92.1118 14.191C92.5538 14.5463 92.7748 15.075 92.7748 15.777C92.7748 16.219 92.6665 16.609 92.4498 16.947C92.2332 17.2763 91.9298 17.5363 91.5398 17.727C91.1585 17.909 90.7035 18 90.1748 18H87.6268ZM88.6408 16.739H89.8368C90.1922 16.739 90.4695 16.661 90.6688 16.505C90.8768 16.349 90.9808 16.115 90.9808 15.803C90.9808 15.491 90.8812 15.2613 90.6818 15.114C90.4825 14.9667 90.2008 14.893 89.8368 14.893H88.6408V16.739ZM35.2965 36.143C34.6032 36.143 33.9965 36.0087 33.4765 35.74C32.9652 35.4627 32.5709 35.0727 32.2935 34.57C32.0162 34.0673 31.8775 33.4737 31.8775 32.789C31.8775 32.2777 31.9555 31.8183 32.1115 31.411C32.2675 31.0037 32.4929 30.657 32.7875 30.371C33.0909 30.085 33.4549 29.8683 33.8795 29.721C34.3042 29.565 34.7765 29.487 35.2965 29.487C35.5652 29.487 35.8512 29.5217 36.1545 29.591C36.4579 29.6517 36.7569 29.76 37.0515 29.916C37.2249 29.994 37.3419 30.1067 37.4025 30.254C37.4719 30.3927 37.4979 30.54 37.4805 30.696C37.4632 30.8433 37.4069 30.9777 37.3115 31.099C37.2249 31.2117 37.1122 31.2897 36.9735 31.333C36.8349 31.3677 36.6789 31.3417 36.5055 31.255C36.3409 31.1597 36.1675 31.0903 35.9855 31.047C35.8122 31.0037 35.6475 30.982 35.4915 30.982C35.2315 30.982 35.0019 31.0253 34.8025 31.112C34.6032 31.19 34.4342 31.307 34.2955 31.463C34.1655 31.6103 34.0615 31.7967 33.9835 32.022C33.9142 32.2473 33.8795 32.5073 33.8795 32.802C33.8795 33.374 34.0182 33.8247 34.2955 34.154C34.5815 34.4747 34.9802 34.635 35.4915 34.635C35.6475 34.635 35.8122 34.6177 35.9855 34.583C36.1589 34.5397 36.3322 34.4703 36.5055 34.375C36.6789 34.2883 36.8349 34.2667 36.9735 34.31C37.1122 34.3533 37.2205 34.4357 37.2985 34.557C37.3852 34.6697 37.4329 34.804 37.4415 34.96C37.4589 35.1073 37.4329 35.2547 37.3635 35.402C37.3029 35.5407 37.1902 35.649 37.0255 35.727C36.7309 35.8743 36.4362 35.9783 36.1415 36.039C35.8469 36.1083 35.5652 36.143 35.2965 36.143ZM39.6014 36.117C39.2807 36.117 39.0337 36.0303 38.8604 35.857C38.6957 35.6837 38.6134 35.4367 38.6134 35.116V30.501C38.6134 30.1717 38.6957 29.9247 38.8604 29.76C39.0337 29.5953 39.2807 29.513 39.6014 29.513C39.9134 29.513 40.1517 29.5953 40.3164 29.76C40.4897 29.9247 40.5764 30.1717 40.5764 30.501V31.983H43.0074V30.501C43.0074 30.1717 43.0897 29.9247 43.2544 29.76C43.419 29.5953 43.6617 29.513 43.9824 29.513C44.2944 29.513 44.537 29.5953 44.7104 29.76C44.8837 29.9247 44.9704 30.1717 44.9704 30.501V35.116C44.9704 35.4367 44.8837 35.6837 44.7104 35.857C44.537 36.0303 44.2944 36.117 43.9824 36.117C43.6617 36.117 43.419 36.0303 43.2544 35.857C43.0897 35.6837 43.0074 35.4367 43.0074 35.116V33.504H40.5764V35.116C40.5764 35.4367 40.494 35.6837 40.3294 35.857C40.1647 36.0303 39.922 36.117 39.6014 36.117ZM49.7429 36.143C49.0582 36.143 48.4602 36.0087 47.9489 35.74C47.4462 35.4713 47.0562 35.0857 46.7789 34.583C46.5016 34.0803 46.3629 33.4867 46.3629 32.802C46.3629 32.2907 46.4409 31.8313 46.5969 31.424C46.7529 31.0167 46.9782 30.67 47.2729 30.384C47.5762 30.0893 47.9359 29.8683 48.3519 29.721C48.7679 29.565 49.2316 29.487 49.7429 29.487C50.4276 29.487 51.0212 29.6213 51.5239 29.89C52.0352 30.1587 52.4296 30.54 52.7069 31.034C52.9929 31.528 53.1359 32.1173 53.1359 32.802C53.1359 33.322 53.0536 33.7857 52.8889 34.193C52.7329 34.6003 52.5076 34.9513 52.2129 35.246C51.9182 35.5407 51.5586 35.766 51.1339 35.922C50.7179 36.0693 50.2542 36.143 49.7429 36.143ZM49.7429 34.674C50.0289 34.674 50.2759 34.6047 50.4839 34.466C50.6919 34.3273 50.8566 34.1237 50.9779 33.855C51.0992 33.5777 51.1599 33.2267 51.1599 32.802C51.1599 32.1693 51.0299 31.7057 50.7699 31.411C50.5099 31.1077 50.1676 30.956 49.7429 30.956C49.4656 30.956 49.2186 31.021 49.0019 31.151C48.7939 31.281 48.6292 31.4847 48.5079 31.762C48.3952 32.0307 48.3389 32.3773 48.3389 32.802C48.3389 33.4347 48.4689 33.907 48.7289 34.219C48.9889 34.5223 49.3269 34.674 49.7429 34.674ZM55.4696 36C55.1663 36 54.9323 35.9177 54.7676 35.753C54.6029 35.5883 54.5206 35.35 54.5206 35.038V30.579C54.5206 30.267 54.6029 30.0287 54.7676 29.864C54.9323 29.6993 55.1663 29.617 55.4696 29.617H58.1476C58.7283 29.617 59.1919 29.6863 59.5386 29.825C59.8939 29.955 60.1496 30.1457 60.3056 30.397C60.4616 30.6397 60.5396 30.9387 60.5396 31.294C60.5396 31.684 60.4053 32.0177 60.1366 32.295C59.8679 32.5637 59.5126 32.7327 59.0706 32.802V32.607C59.6513 32.6503 60.0803 32.815 60.3576 33.101C60.6349 33.387 60.7736 33.7553 60.7736 34.206C60.7736 34.752 60.5569 35.1897 60.1236 35.519C59.6989 35.8397 59.0749 36 58.2516 36H55.4696ZM56.3276 34.83H58.0566C58.3686 34.83 58.6026 34.7693 58.7586 34.648C58.9233 34.518 59.0056 34.3273 59.0056 34.076C59.0056 33.8247 58.9233 33.6383 58.7586 33.517C58.6026 33.387 58.3686 33.322 58.0566 33.322H56.3276V34.83ZM56.3276 32.165H57.9396C58.1996 32.165 58.4033 32.1043 58.5506 31.983C58.6979 31.853 58.7716 31.6797 58.7716 31.463C58.7716 31.2377 58.6979 31.0687 58.5506 30.956C58.4033 30.8433 58.1996 30.787 57.9396 30.787H56.3276V32.165ZM64.2323 36.143C63.7643 36.143 63.344 36.052 62.9713 35.87C62.5986 35.688 62.3083 35.441 62.1003 35.129C61.8923 34.817 61.7883 34.466 61.7883 34.076C61.7883 33.608 61.9096 33.2397 62.1523 32.971C62.395 32.6937 62.7893 32.4987 63.3353 32.386C63.8813 32.2647 64.605 32.204 65.5063 32.204H66.1953V33.218H65.5193C65.0773 33.218 64.7176 33.244 64.4403 33.296C64.1716 33.3393 63.9766 33.4173 63.8553 33.53C63.7426 33.6427 63.6863 33.7987 63.6863 33.998C63.6863 34.2407 63.7686 34.44 63.9333 34.596C64.1066 34.752 64.3536 34.83 64.6743 34.83C64.9256 34.83 65.1466 34.7737 65.3373 34.661C65.5366 34.5397 65.6926 34.3793 65.8053 34.18C65.918 33.972 65.9743 33.738 65.9743 33.478V31.983C65.9743 31.6017 65.8876 31.333 65.7143 31.177C65.541 31.0123 65.2463 30.93 64.8303 30.93C64.5963 30.93 64.3406 30.9603 64.0633 31.021C63.7946 31.073 63.4956 31.164 63.1663 31.294C62.9756 31.3807 62.8066 31.4023 62.6593 31.359C62.512 31.307 62.3993 31.2203 62.3213 31.099C62.2433 30.969 62.2043 30.8303 62.2043 30.683C62.2043 30.527 62.2476 30.3797 62.3343 30.241C62.421 30.0937 62.564 29.9853 62.7633 29.916C63.1706 29.7513 63.552 29.6387 63.9073 29.578C64.2713 29.5173 64.605 29.487 64.9083 29.487C65.5756 29.487 66.1216 29.5867 66.5463 29.786C66.9796 29.9767 67.3046 30.2757 67.5213 30.683C67.738 31.0817 67.8463 31.5973 67.8463 32.23V35.116C67.8463 35.4367 67.7683 35.6837 67.6123 35.857C67.4563 36.0303 67.231 36.117 66.9363 36.117C66.6416 36.117 66.412 36.0303 66.2473 35.857C66.0913 35.6837 66.0133 35.4367 66.0133 35.116V34.635L66.1043 34.713C66.0523 35.0077 65.9396 35.2633 65.7663 35.48C65.6016 35.688 65.3893 35.8527 65.1293 35.974C64.8693 36.0867 64.5703 36.143 64.2323 36.143Z" fill="white"/>
</g>
</g>
<rect x="1.46875" y="1.46875" width="97.0625" height="44.0625" rx="9.53125" stroke="url(#paint0_linear_136_1934)" stroke-opacity="0.2" stroke-width="2.9375"/>
</g>
</g>
<defs>
<filter id="filter0_i_136_1934" x="0" y="-2.9375" width="100" height="59.9375" filterUnits="userSpaceOnUse" color-interpolation-filters="sRGB">
<feFlood flood-opacity="0" result="BackgroundImageFix"/>
<feBlend mode="normal" in="SourceGraphic" in2="BackgroundImageFix" result="shape"/>
<feColorMatrix in="SourceAlpha" type="matrix" values="0 0 0 0 0 0 0 0 0 0 0 0 0 0 0 0 0 0 127 0" result="hardAlpha"/>
<feOffset dy="-2.9375"/>
<feGaussianBlur stdDeviation="1.46875"/>
<feComposite in2="hardAlpha" operator="arithmetic" k2="-1" k3="1"/>
<feColorMatrix type="matrix" values="0 0 0 0 0 0 0 0 0 0 0 0 0 0 0 0 0 0 0.1 0"/>
<feBlend mode="normal" in2="shape" result="effect1_innerShadow_136_1934"/>
</filter>
<filter id="filter1_d_136_1934" x="0" y="0" width="100" height="57" filterUnits="userSpaceOnUse" color-interpolation-filters="sRGB">
<feFlood flood-opacity="0" result="BackgroundImageFix"/>
<feColorMatrix in="SourceAlpha" type="matrix" values="0 0 0 0 0 0 0 0 0 0 0 0 0 0 0 0 0 0 127 0" result="hardAlpha"/>
<feOffset dy="10"/>
<feComposite in2="hardAlpha" operator="out"/>
<feColorMatrix type="matrix" values="0 0 0 0 0 0 0 0 0 0 0 0 0 0 0 0 0 0 0.2 0"/>
<feBlend mode="normal" in2="BackgroundImageFix" result="effect1_dropShadow_136_1934"/>
<feBlend mode="normal" in="SourceGraphic" in2="effect1_dropShadow_136_1934" result="shape"/>
</filter>
<filter id="filter2_d_136_1934" x="7.77832" y="8.62695" width="84.9961" height="29.5161" filterUnits="userSpaceOnUse" color-interpolation-filters="sRGB">
<feFlood flood-opacity="0" result="BackgroundImageFix"/>
<feColorMatrix in="SourceAlpha" type="matrix" values="0 0 0 0 0 0 0 0 0 0 0 0 0 0 0 0 0 0 127 0" result="hardAlpha"/>
<feOffset dy="2"/>
<feComposite in2="hardAlpha" operator="out"/>
<feColorMatrix type="matrix" values="0 0 0 0 0 0 0 0 0 0 0 0 0 0 0 0 0 0 0.15 0"/>
<feBlend mode="normal" in2="BackgroundImageFix" result="effect1_dropShadow_136_1934"/>
<feBlend mode="normal" in="SourceGraphic" in2="effect1_dropShadow_136_1934" result="shape"/>
</filter>
<linearGradient id="paint0_linear_136_1934" x1="50" y1="0" x2="50" y2="47" gradientUnits="userSpaceOnUse">
<stop stop-color="white" stop-opacity="0.5"/>
<stop offset="0.296666" stop-color="white" stop-opacity="0"/>
<stop offset="0.641666" stop-color="white" stop-opacity="0"/>
<stop offset="0.956666" stop-color="white"/>
</linearGradient>
<clipPath id="clip0_136_1934">
<rect width="100" height="47" rx="11" fill="white"/>
</clipPath>
</defs>
</svg>
