<svg width="105" height="63" viewBox="0 0 105 63" fill="none" xmlns="http://www.w3.org/2000/svg">
<g filter="url(#filter0_di_348_4939)">
<rect x="2.45508" y="0.5" width="100.545" height="56" rx="11.2159" fill="#BD3A0F" shape-rendering="crispEdges"/>
<g filter="url(#filter1_d_348_4939)">
<rect x="2.45312" y="0.5" width="100.545" height="46.4545" rx="11.2159" fill="#BD3A0F"/>
<rect x="3.38778" y="1.43466" width="98.6761" height="44.5852" rx="10.2812" stroke="url(#paint0_linear_348_4939)" stroke-opacity="0.2" stroke-width="1.86932"/>
<g filter="url(#filter2_d_348_4939)">
<path d="M30.1836 29.3817C29.7941 29.3817 29.4963 29.2729 29.2901 29.0552C29.0839 28.8376 28.9808 28.5341 28.9808 28.1446V18.1963C28.9808 17.8069 29.0897 17.5033 29.3073 17.2857C29.5364 17.0681 29.8457 16.9592 30.2351 16.9592C30.5787 16.9592 30.8479 17.028 31.0427 17.1654C31.2488 17.2914 31.4378 17.5148 31.6097 17.8355L35.5787 25.0862H34.9945L38.9635 17.8355C39.1353 17.5148 39.3186 17.2914 39.5133 17.1654C39.7195 17.028 39.9887 16.9592 40.3208 16.9592C40.7103 16.9592 41.0081 17.0681 41.2143 17.2857C41.4319 17.5033 41.5407 17.8069 41.5407 18.1963V28.1446C41.5407 28.5341 41.4377 28.8376 41.2315 29.0552C41.0253 29.2729 40.7275 29.3817 40.338 29.3817C39.9486 29.3817 39.645 29.2729 39.4274 29.0552C39.2212 28.8376 39.1181 28.5341 39.1181 28.1446V21.186H39.4961L36.3003 26.9075C36.1628 27.1251 36.0139 27.2912 35.8536 27.4058C35.7047 27.5089 35.5042 27.5604 35.2522 27.5604C35.0002 27.5604 34.794 27.5031 34.6337 27.3886C34.4733 27.2741 34.3301 27.1137 34.2041 26.9075L30.9739 21.1688H31.3863V28.1446C31.3863 28.5341 31.2832 28.8376 31.077 29.0552C30.8823 29.2729 30.5845 29.3817 30.1836 29.3817ZM48.2928 29.4161C47.2963 29.4161 46.4372 29.2385 45.7155 28.8834C45.0053 28.5169 44.4555 28.0071 44.0661 27.3542C43.6881 26.6899 43.4991 25.911 43.4991 25.0175C43.4991 24.147 43.6823 23.3852 44.0489 22.7323C44.4154 22.068 44.9252 21.5525 45.5781 21.186C46.2424 20.808 46.9927 20.619 47.8289 20.619C48.436 20.619 48.9858 20.7221 49.4783 20.9282C49.9709 21.123 50.3947 21.4093 50.7498 21.7873C51.1049 22.1539 51.3741 22.6063 51.5573 23.1447C51.7406 23.6716 51.8323 24.2615 51.8323 24.9144C51.8323 25.1321 51.7635 25.2981 51.6261 25.4127C51.4886 25.5158 51.2882 25.5673 51.0247 25.5673H45.6296V24.2271H49.9594L49.6845 24.4677C49.6845 23.9981 49.6158 23.6086 49.4783 23.2993C49.3409 22.9786 49.1404 22.7381 48.877 22.5777C48.625 22.4173 48.31 22.3371 47.932 22.3371C47.5082 22.3371 47.1473 22.4345 46.8495 22.6292C46.5517 22.824 46.3226 23.1046 46.1623 23.4711C46.0019 23.8377 45.9217 24.2787 45.9217 24.7941V24.9316C45.9217 25.8021 46.1222 26.4436 46.5231 26.856C46.9354 27.2683 47.5425 27.4745 48.3443 27.4745C48.6193 27.4745 48.9343 27.4401 49.2893 27.3714C49.6444 27.3027 49.9766 27.1939 50.2859 27.045C50.5493 26.919 50.7842 26.8789 50.9903 26.9247C51.1965 26.9591 51.3569 27.0507 51.4714 27.1996C51.586 27.3485 51.649 27.5203 51.6604 27.7151C51.6833 27.9098 51.6433 28.1045 51.5402 28.2992C51.4371 28.4825 51.2653 28.6371 51.0247 28.7631C50.6353 28.9808 50.1943 29.1411 49.7017 29.2442C49.2206 29.3588 48.751 29.4161 48.2928 29.4161ZM54.9156 29.3817C54.4918 29.3817 54.1653 29.2671 53.9362 29.0381C53.7186 28.809 53.6098 28.4825 53.6098 28.0587V21.9591C53.6098 21.5239 53.7186 21.1974 53.9362 20.9798C54.1653 20.7621 54.4918 20.6533 54.9156 20.6533C55.3279 20.6533 55.6429 20.7621 55.8606 20.9798C56.0897 21.1974 56.2042 21.5239 56.2042 21.9591V23.9179H59.4172V21.9591C59.4172 21.5239 59.526 21.1974 59.7437 20.9798C59.9613 20.7621 60.282 20.6533 60.7059 20.6533C61.1182 20.6533 61.4389 20.7621 61.668 20.9798C61.8971 21.1974 62.0117 21.5239 62.0117 21.9591V28.0587C62.0117 28.4825 61.8971 28.809 61.668 29.0381C61.4389 29.2671 61.1182 29.3817 60.7059 29.3817C60.282 29.3817 59.9613 29.2671 59.7437 29.0381C59.526 28.809 59.4172 28.4825 59.4172 28.0587V25.9281H56.2042V28.0587C56.2042 28.4825 56.0954 28.809 55.8778 29.0381C55.6601 29.2671 55.3394 29.3817 54.9156 29.3817ZM72.4431 29.4161C71.6527 29.4161 70.9482 29.2786 70.3297 29.0037C69.7226 28.7173 69.2243 28.3164 68.8349 27.801C68.4454 27.2741 68.1934 26.6498 68.0789 25.9281H66.7902V28.0587C66.7902 28.4825 66.6871 28.809 66.481 29.0381C66.2748 29.2671 65.9598 29.3817 65.536 29.3817C65.1236 29.3817 64.8086 29.2671 64.591 29.0381C64.3733 28.809 64.2645 28.4825 64.2645 28.0587V21.9591C64.2645 21.5353 64.3733 21.2146 64.591 20.997C64.8086 20.7679 65.1236 20.6533 65.536 20.6533C65.9483 20.6533 66.2576 20.7679 66.4638 20.997C66.6814 21.2146 66.7902 21.5353 66.7902 21.9591V23.9179H68.0961C68.2335 23.2191 68.497 22.6235 68.8864 22.131C69.2759 21.6384 69.7684 21.2661 70.3641 21.0141C70.9711 20.7507 71.6641 20.619 72.4431 20.619C73.348 20.619 74.1326 20.7965 74.797 21.1516C75.4728 21.5067 75.994 22.0107 76.3605 22.6636C76.7271 23.3165 76.9103 24.0954 76.9103 25.0003C76.9103 25.6876 76.8072 26.3004 76.6011 26.8388C76.3949 27.3771 76.0913 27.8411 75.6904 28.2305C75.301 28.62 74.8313 28.9178 74.2815 29.124C73.7317 29.3187 73.1189 29.4161 72.4431 29.4161ZM72.4431 27.4745C72.8211 27.4745 73.1475 27.3829 73.4224 27.1996C73.6973 27.0163 73.9092 26.7471 74.0581 26.3921C74.2185 26.0255 74.2987 25.5616 74.2987 25.0003C74.2987 24.1641 74.1269 23.5513 73.7832 23.1619C73.4396 22.761 72.9929 22.5605 72.4431 22.5605C72.0765 22.5605 71.7501 22.6464 71.4637 22.8182C71.1888 22.9901 70.9711 23.2592 70.8108 23.6258C70.6504 23.9809 70.5702 24.4391 70.5702 25.0003C70.5702 25.8365 70.7421 26.4608 71.0857 26.8731C71.4408 27.2741 71.8932 27.4745 72.4431 27.4745Z" fill="white"/>
</g>
</g>
</g>
<defs>
<filter id="filter0_di_348_4939" x="0.583807" y="-1.36932" width="104.286" height="63.4773" filterUnits="userSpaceOnUse" color-interpolation-filters="sRGB">
<feFlood flood-opacity="0" result="BackgroundImageFix"/>
<feColorMatrix in="SourceAlpha" type="matrix" values="0 0 0 0 0 0 0 0 0 0 0 0 0 0 0 0 0 0 127 0" result="hardAlpha"/>
<feOffset dy="3.73864"/>
<feGaussianBlur stdDeviation="0.934659"/>
<feComposite in2="hardAlpha" operator="out"/>
<feColorMatrix type="matrix" values="0 0 0 0 0 0 0 0 0 0 0 0 0 0 0 0 0 0 0.25 0"/>
<feBlend mode="normal" in2="BackgroundImageFix" result="effect1_dropShadow_348_4939"/>
<feBlend mode="normal" in="SourceGraphic" in2="effect1_dropShadow_348_4939" result="shape"/>
<feColorMatrix in="SourceAlpha" type="matrix" values="0 0 0 0 0 0 0 0 0 0 0 0 0 0 0 0 0 0 127 0" result="hardAlpha"/>
<feOffset dy="-1.86932"/>
<feGaussianBlur stdDeviation="0.934659"/>
<feComposite in2="hardAlpha" operator="arithmetic" k2="-1" k3="1"/>
<feColorMatrix type="matrix" values="0 0 0 0 0 0 0 0 0 0 0 0 0 0 0 0 0 0 0.1 0"/>
<feBlend mode="normal" in2="shape" result="effect2_innerShadow_348_4939"/>
</filter>
<filter id="filter1_d_348_4939" x="2.45312" y="0.5" width="100.545" height="55.8012" filterUnits="userSpaceOnUse" color-interpolation-filters="sRGB">
<feFlood flood-opacity="0" result="BackgroundImageFix"/>
<feColorMatrix in="SourceAlpha" type="matrix" values="0 0 0 0 0 0 0 0 0 0 0 0 0 0 0 0 0 0 127 0" result="hardAlpha"/>
<feOffset dy="9.34659"/>
<feComposite in2="hardAlpha" operator="out"/>
<feColorMatrix type="matrix" values="0 0 0 0 0 0 0 0 0 0 0 0 0 0 0 0 0 0 0.2 0"/>
<feBlend mode="normal" in2="BackgroundImageFix" result="effect1_dropShadow_348_4939"/>
<feBlend mode="normal" in="SourceGraphic" in2="effect1_dropShadow_348_4939" result="shape"/>
</filter>
<filter id="filter2_d_348_4939" x="28.9805" y="16.9595" width="47.9297" height="13.7293" filterUnits="userSpaceOnUse" color-interpolation-filters="sRGB">
<feFlood flood-opacity="0" result="BackgroundImageFix"/>
<feColorMatrix in="SourceAlpha" type="matrix" values="0 0 0 0 0 0 0 0 0 0 0 0 0 0 0 0 0 0 127 0" result="hardAlpha"/>
<feOffset dy="1.27273"/>
<feComposite in2="hardAlpha" operator="out"/>
<feColorMatrix type="matrix" values="0 0 0 0 0 0 0 0 0 0 0 0 0 0 0 0 0 0 0.15 0"/>
<feBlend mode="normal" in2="BackgroundImageFix" result="effect1_dropShadow_348_4939"/>
<feBlend mode="normal" in="SourceGraphic" in2="effect1_dropShadow_348_4939" result="shape"/>
</filter>
<linearGradient id="paint0_linear_348_4939" x1="52.7259" y1="0.5" x2="52.7259" y2="46.9545" gradientUnits="userSpaceOnUse">
<stop stop-color="white" stop-opacity="0.5"/>
<stop offset="0.296666" stop-color="white" stop-opacity="0"/>
<stop offset="0.641666" stop-color="white" stop-opacity="0"/>
<stop offset="0.956666" stop-color="white"/>
</linearGradient>
</defs>
</svg>
