<svg width="105" height="63" viewBox="0 0 105 63" fill="none" xmlns="http://www.w3.org/2000/svg">
<g filter="url(#filter0_di_348_4943)">
<rect x="2" y="0.5" width="100.545" height="56" rx="11.2159" fill="#40BF4C" shape-rendering="crispEdges"/>
<g filter="url(#filter1_d_348_4943)">
<rect x="1.99805" y="0.5" width="100.545" height="46.4545" rx="11.2159" fill="#40BF4C"/>
<rect x="2.93271" y="1.43466" width="98.6761" height="44.5852" rx="10.2812" stroke="url(#paint0_linear_348_4943)" stroke-opacity="0.2" stroke-width="1.86932"/>
<g filter="url(#filter2_d_348_4943)">
<path d="M19.298 32.013C18.9085 32.013 18.6107 31.9099 18.4045 31.7037C18.2098 31.509 18.1124 31.2169 18.1124 30.8274V28.0611C18.1124 27.2593 18.5191 26.8584 19.3323 26.8584H20.432L18.9543 27.2536C19.5958 26.658 20.0712 25.7645 20.3804 24.5732C20.7012 23.382 20.8615 21.87 20.8615 20.0372V18.2331C20.8615 17.7864 20.9818 17.4428 21.2223 17.2022C21.4629 16.9617 21.8123 16.8414 22.2704 16.8414H28.3528C28.7995 16.8414 29.1432 16.9617 29.3837 17.2022C29.6243 17.4428 29.7445 17.7864 29.7445 18.2331V27.8378L28.7652 26.8584H30.26C30.6494 26.8584 30.9473 26.9615 31.1534 27.1677C31.3596 27.3739 31.4627 27.6717 31.4627 28.0611V30.8274C31.4627 31.6178 31.079 32.013 30.3115 32.013C29.9335 32.013 29.6414 31.9099 29.4352 31.7037C29.2291 31.509 29.126 31.2169 29.126 30.8274V28.9546H20.4663V30.8274C20.4663 31.6178 20.0769 32.013 19.298 32.013ZM22.0127 26.8584H27.0642V18.9204H23.3185V20.295C23.3185 21.8299 23.2097 23.1357 22.9921 24.2124C22.7744 25.2777 22.448 26.1597 22.0127 26.8584ZM35.8191 29.1436C35.2006 29.1436 34.645 29.0233 34.1525 28.7828C33.6599 28.5422 33.2762 28.2158 33.0013 27.8034C32.7264 27.391 32.5889 26.9271 32.5889 26.4117C32.5889 25.7931 32.7493 25.3063 33.07 24.9512C33.3907 24.5847 33.9119 24.327 34.6336 24.178C35.3552 24.0177 36.3116 23.9375 37.5029 23.9375H38.4136V25.2777H37.5201C36.9359 25.2777 36.4606 25.312 36.094 25.3808C35.7389 25.438 35.4812 25.5411 35.3208 25.69C35.1719 25.839 35.0975 26.0451 35.0975 26.3086C35.0975 26.6293 35.2063 26.8928 35.4239 27.099C35.653 27.3051 35.9795 27.4082 36.4033 27.4082C36.7355 27.4082 37.0276 27.3338 37.2796 27.1849C37.543 27.0245 37.7492 26.8126 37.8981 26.5491C38.047 26.2742 38.1215 25.965 38.1215 25.6213V23.6454C38.1215 23.1414 38.0069 22.7863 37.7778 22.5801C37.5487 22.3625 37.1593 22.2537 36.6095 22.2537C36.3002 22.2537 35.9623 22.2938 35.5957 22.374C35.2406 22.4427 34.8455 22.563 34.4102 22.7348C34.1582 22.8493 33.9348 22.878 33.7401 22.8207C33.5454 22.752 33.3965 22.6374 33.2934 22.477C33.1903 22.3052 33.1387 22.122 33.1387 21.9272C33.1387 21.721 33.196 21.5263 33.3106 21.343C33.4251 21.1483 33.6141 21.0051 33.8776 20.9135C34.4159 20.6959 34.9199 20.547 35.3896 20.4668C35.8706 20.3866 36.3116 20.3465 36.7126 20.3465C37.5946 20.3465 38.3162 20.4782 38.8775 20.7417C39.4502 20.9937 39.8797 21.3889 40.1661 21.9272C40.4525 22.4541 40.5956 23.1357 40.5956 23.9719V27.7862C40.5956 28.21 40.4926 28.5365 40.2864 28.7656C40.0802 28.9947 39.7824 29.1092 39.3929 29.1092C39.0035 29.1092 38.6999 28.9947 38.4823 28.7656C38.2761 28.5365 38.173 28.21 38.173 27.7862V27.1505L38.2933 27.2536C38.2246 27.643 38.0756 27.981 37.8466 28.2673C37.6289 28.5422 37.3483 28.7599 37.0046 28.9202C36.661 29.0691 36.2658 29.1436 35.8191 29.1436ZM49.7405 29.1092C49.3167 29.1092 48.9903 28.9947 48.7612 28.7656C48.5435 28.5365 48.4347 28.21 48.4347 27.7862V22.5286H46.2354V23.4736C46.2354 24.2067 46.1839 24.871 46.0808 25.4667C45.9777 26.0623 45.8231 26.5892 45.6169 27.0474C45.4107 27.5056 45.1473 27.895 44.8265 28.2158C44.5058 28.525 44.1221 28.7713 43.6754 28.9546C43.3775 29.0806 43.1084 29.115 42.8678 29.0577C42.6273 29.0004 42.4268 28.8916 42.2664 28.7312C42.1175 28.5709 42.0202 28.3819 41.9744 28.1642C41.94 27.9351 41.9686 27.7118 42.0603 27.4941C42.1634 27.265 42.3466 27.0703 42.6101 26.91C42.8621 26.7725 43.0683 26.595 43.2286 26.3773C43.389 26.1597 43.515 25.902 43.6066 25.6041C43.6983 25.3063 43.7613 24.9799 43.7956 24.6248C43.8414 24.2582 43.8644 23.8459 43.8644 23.3877V21.9788C43.8644 21.5091 43.9846 21.1483 44.2252 20.8963C44.4772 20.6443 44.838 20.5183 45.3076 20.5183H49.5859C50.0555 20.5183 50.4106 20.6443 50.6512 20.8963C50.9032 21.1483 51.0292 21.5091 51.0292 21.9788V27.7862C51.0292 28.21 50.9146 28.5365 50.6855 28.7656C50.4679 28.9947 50.1529 29.1092 49.7405 29.1092ZM54.5575 28.9546C54.1566 28.9546 53.8473 28.8458 53.6297 28.6281C53.412 28.4105 53.3032 28.0955 53.3032 27.6831V21.6867C53.3032 21.2514 53.412 20.925 53.6297 20.7073C53.8588 20.4897 54.1852 20.3809 54.609 20.3809C55.0214 20.3809 55.3364 20.4897 55.554 20.7073C55.7831 20.925 55.8977 21.2514 55.8977 21.6867V23.1987H57.9251C59.0591 23.1987 59.9125 23.4392 60.4852 23.9203C61.0694 24.39 61.3615 25.0887 61.3615 26.0165C61.3615 26.6007 61.2183 27.1161 60.9319 27.5629C60.6456 27.9981 60.2447 28.3418 59.7292 28.5938C59.2252 28.8343 58.6238 28.9546 57.9251 28.9546H54.5575ZM55.8977 27.288H57.4784C57.948 27.288 58.3146 27.1849 58.578 26.9787C58.8529 26.7725 58.9904 26.4632 58.9904 26.0509C58.9904 25.6385 58.8587 25.335 58.5952 25.1402C58.3318 24.9455 57.9595 24.8481 57.4784 24.8481H55.8977V27.288ZM64.239 28.9546C63.8381 28.9546 63.5289 28.8458 63.3112 28.6281C63.0936 28.4105 62.9848 28.0955 62.9848 27.6831V21.6867C62.9848 21.2514 63.0879 20.925 63.294 20.7073C63.5117 20.4897 63.8152 20.3809 64.2047 20.3809C64.5941 20.3809 64.8919 20.4897 65.0981 20.7073C65.3043 20.925 65.4074 21.2514 65.4074 21.6867V26.9443H67.9503V21.6867C67.9503 21.2514 68.0534 20.925 68.2596 20.7073C68.4772 20.4897 68.7808 20.3809 69.1702 20.3809C69.5597 20.3809 69.8575 20.4897 70.0637 20.7073C70.2699 20.925 70.3729 21.2514 70.3729 21.6867V26.9443H72.9159V21.6867C72.9159 21.2514 73.0189 20.925 73.2251 20.7073C73.4428 20.4897 73.7463 20.3809 74.1358 20.3809C74.5252 20.3809 74.823 20.4897 75.0292 20.7073C75.2354 20.925 75.3385 21.2514 75.3385 21.6867V27.6831C75.3385 28.0955 75.2297 28.4105 75.012 28.6281C74.7944 28.8458 74.4851 28.9546 74.0842 28.9546H64.239ZM81.9807 29.1436C80.9842 29.1436 80.1251 28.966 79.4035 28.611C78.6933 28.2444 78.1435 27.7347 77.754 27.0818C77.376 26.4174 77.187 25.6385 77.187 24.745C77.187 23.8745 77.3703 23.1128 77.7368 22.4599C78.1034 21.7955 78.6131 21.28 79.266 20.9135C79.9304 20.5355 80.6807 20.3465 81.5168 20.3465C82.1239 20.3465 82.6737 20.4496 83.1663 20.6558C83.6588 20.8505 84.0827 21.1369 84.4377 21.5149C84.7928 21.8814 85.062 22.3339 85.2453 22.8722C85.4286 23.3991 85.5202 23.989 85.5202 24.642C85.5202 24.8596 85.4515 25.0257 85.314 25.1402C85.1766 25.2433 84.9761 25.2949 84.7127 25.2949H79.3176V23.9547H83.6474L83.3725 24.1952C83.3725 23.7256 83.3037 23.3361 83.1663 23.0269C83.0288 22.7061 82.8284 22.4656 82.5649 22.3052C82.3129 22.1449 81.9979 22.0647 81.6199 22.0647C81.1961 22.0647 80.8353 22.162 80.5375 22.3568C80.2397 22.5515 80.0106 22.8321 79.8502 23.1987C79.6898 23.5652 79.6097 24.0062 79.6097 24.5217V24.6591C79.6097 25.5297 79.8101 26.1711 80.211 26.5835C80.6234 26.9959 81.2305 27.202 82.0323 27.202C82.3072 27.202 82.6222 27.1677 82.9773 27.099C83.3324 27.0302 83.6646 26.9214 83.9738 26.7725C84.2373 26.6465 84.4721 26.6064 84.6783 26.6522C84.8845 26.6866 85.0448 26.7782 85.1594 26.9271C85.2739 27.076 85.3369 27.2479 85.3484 27.4426C85.3713 27.6373 85.3312 27.832 85.2281 28.0268C85.125 28.21 84.9532 28.3647 84.7127 28.4907C84.3232 28.7083 83.8822 28.8687 83.3897 28.9718C82.9086 29.0863 82.4389 29.1436 81.9807 29.1436Z" fill="white"/>
</g>
</g>
</g>
<defs>
<filter id="filter0_di_348_4943" x="0.128729" y="-1.36932" width="104.286" height="63.4773" filterUnits="userSpaceOnUse" color-interpolation-filters="sRGB">
<feFlood flood-opacity="0" result="BackgroundImageFix"/>
<feColorMatrix in="SourceAlpha" type="matrix" values="0 0 0 0 0 0 0 0 0 0 0 0 0 0 0 0 0 0 127 0" result="hardAlpha"/>
<feOffset dy="3.73864"/>
<feGaussianBlur stdDeviation="0.934659"/>
<feComposite in2="hardAlpha" operator="out"/>
<feColorMatrix type="matrix" values="0 0 0 0 0 0 0 0 0 0 0 0 0 0 0 0 0 0 0.25 0"/>
<feBlend mode="normal" in2="BackgroundImageFix" result="effect1_dropShadow_348_4943"/>
<feBlend mode="normal" in="SourceGraphic" in2="effect1_dropShadow_348_4943" result="shape"/>
<feColorMatrix in="SourceAlpha" type="matrix" values="0 0 0 0 0 0 0 0 0 0 0 0 0 0 0 0 0 0 127 0" result="hardAlpha"/>
<feOffset dy="-1.86932"/>
<feGaussianBlur stdDeviation="0.934659"/>
<feComposite in2="hardAlpha" operator="arithmetic" k2="-1" k3="1"/>
<feColorMatrix type="matrix" values="0 0 0 0 0 0 0 0 0 0 0 0 0 0 0 0 0 0 0.1 0"/>
<feBlend mode="normal" in2="shape" result="effect2_innerShadow_348_4943"/>
</filter>
<filter id="filter1_d_348_4943" x="1.99805" y="0.5" width="100.545" height="55.8012" filterUnits="userSpaceOnUse" color-interpolation-filters="sRGB">
<feFlood flood-opacity="0" result="BackgroundImageFix"/>
<feColorMatrix in="SourceAlpha" type="matrix" values="0 0 0 0 0 0 0 0 0 0 0 0 0 0 0 0 0 0 127 0" result="hardAlpha"/>
<feOffset dy="9.34659"/>
<feComposite in2="hardAlpha" operator="out"/>
<feColorMatrix type="matrix" values="0 0 0 0 0 0 0 0 0 0 0 0 0 0 0 0 0 0 0.2 0"/>
<feBlend mode="normal" in2="BackgroundImageFix" result="effect1_dropShadow_348_4943"/>
<feBlend mode="normal" in="SourceGraphic" in2="effect1_dropShadow_348_4943" result="shape"/>
</filter>
<filter id="filter2_d_348_4943" x="18.1133" y="16.8413" width="67.4062" height="16.4446" filterUnits="userSpaceOnUse" color-interpolation-filters="sRGB">
<feFlood flood-opacity="0" result="BackgroundImageFix"/>
<feColorMatrix in="SourceAlpha" type="matrix" values="0 0 0 0 0 0 0 0 0 0 0 0 0 0 0 0 0 0 127 0" result="hardAlpha"/>
<feOffset dy="1.27273"/>
<feComposite in2="hardAlpha" operator="out"/>
<feColorMatrix type="matrix" values="0 0 0 0 0 0 0 0 0 0 0 0 0 0 0 0 0 0 0.15 0"/>
<feBlend mode="normal" in2="BackgroundImageFix" result="effect1_dropShadow_348_4943"/>
<feBlend mode="normal" in="SourceGraphic" in2="effect1_dropShadow_348_4943" result="shape"/>
</filter>
<linearGradient id="paint0_linear_348_4943" x1="52.2708" y1="0.5" x2="52.2708" y2="46.9545" gradientUnits="userSpaceOnUse">
<stop stop-color="white" stop-opacity="0.5"/>
<stop offset="0.296666" stop-color="white" stop-opacity="0"/>
<stop offset="0.641666" stop-color="white" stop-opacity="0"/>
<stop offset="0.956666" stop-color="white"/>
</linearGradient>
</defs>
</svg>
