<svg width="66" height="82" viewBox="0 0 66 82" fill="none" xmlns="http://www.w3.org/2000/svg">
<path d="M14.9668 4.18682V74.2967C14.9668 76.0567 16.3936 77.4835 18.1536 77.4835C19.9136 77.4835 21.3404 76.0567 21.3404 74.2967V4.18682C21.3404 2.42679 19.9136 1 18.1536 1C16.3936 1 14.9668 2.42679 14.9668 4.18682Z" fill="url(#paint0_linear_210_1944)" stroke="black" stroke-width="2"/>
<path d="M14.9668 33.7418V7.37909C14.9668 6.71519 15.6019 6.23559 16.2404 6.41726L62.5748 19.5986C63.5433 19.8741 63.5433 21.2467 62.5748 21.5223L16.2404 34.7036C15.6019 34.8853 14.9668 34.4057 14.9668 33.7418Z" fill="url(#paint1_linear_210_1944)" stroke="black" stroke-width="2"/>
<path d="M17.2082 75.1593L12.7296 76.8368L12.1397 74.4598L11.5497 72.0828L13.4852 70.8339L16.6303 68.8044L20.4506 70.5827L22.6088 73.1364L17.2082 75.1593Z" fill="url(#paint2_linear_210_1944)" stroke="black" stroke-width="2"/>
<path d="M11.011 80.7801H18.4835L18.044 77.0439L17.6044 73.3076L14.0879 72.5541L8.37363 71.3296L3.75824 75.945L2 80.7801H11.011Z" fill="url(#paint3_linear_210_1944)" stroke="black" stroke-width="2"/>
<path d="M21.5603 80.7801H14.0878L14.5273 77.0439L14.9669 73.3076L18.4834 72.5541L24.1977 71.3296L28.813 75.945L30.5713 80.7801H21.5603Z" fill="url(#paint4_linear_210_1944)" stroke="black" stroke-width="2"/>
<defs>
<linearGradient id="paint0_linear_210_1944" x1="25.9558" y1="39.4615" x2="10.5712" y2="39.4615" gradientUnits="userSpaceOnUse">
<stop stop-color="#FFDEAB"/>
<stop offset="1" stop-color="#B6873E"/>
</linearGradient>
<linearGradient id="paint1_linear_210_1944" x1="-32.9453" y1="2.09889" x2="60.235" y2="23.2265" gradientUnits="userSpaceOnUse">
<stop stop-color="#AF4B3F"/>
<stop offset="0.335" stop-color="#EE4834"/>
<stop offset="0.625" stop-color="#B02818"/>
<stop offset="1" stop-color="#F96655"/>
</linearGradient>
<linearGradient id="paint2_linear_210_1944" x1="18.3173" y1="66.4914" x2="16.7207" y2="76.6381" gradientUnits="userSpaceOnUse">
<stop stop-color="#D9D9D9"/>
<stop offset="1" stop-color="#737373"/>
</linearGradient>
<linearGradient id="paint3_linear_210_1944" x1="4.63736" y1="68.912" x2="12.3297" y2="82.7582" gradientUnits="userSpaceOnUse">
<stop stop-color="#D9D9D9"/>
<stop offset="1" stop-color="#737373"/>
</linearGradient>
<linearGradient id="paint4_linear_210_1944" x1="27.9339" y1="68.912" x2="20.2416" y2="82.7582" gradientUnits="userSpaceOnUse">
<stop stop-color="#D9D9D9"/>
<stop offset="1" stop-color="#737373"/>
</linearGradient>
</defs>
</svg>
