<svg width="50" height="50" viewBox="0 0 50 50" fill="none" xmlns="http://www.w3.org/2000/svg">
<rect x="1" y="1" width="48" height="48" fill="#99B213" stroke="#657E03" stroke-width="2"/>
<path d="M13.7337 36.1391C13.7087 35.614 13.7037 34.9765 13.5561 34.4748C13.3342 33.7205 14.7869 36.7458 15.2533 36.1128C15.4726 35.8152 15.7702 33.1524 16.0362 33.2315C16.4638 33.3586 16.7147 33.7605 17.1677 33.5341" stroke="#657E03" stroke-width="3" stroke-linecap="round"/>
<path d="M20.2461 20.864C20.3477 19.9153 20.5349 18.9946 20.5882 18.0352C20.6072 17.6936 20.609 16.7954 20.7197 16.4103C20.9275 15.6876 21.6971 16.1878 22.1275 16.3774C22.5506 16.5638 24.4167 17.8101 24.9168 17.43C25.4034 17.0602 25.3572 16.0463 25.4562 15.5091C25.5569 14.9635 25.6157 15.2258 25.9957 15.338C26.8447 15.5889 27.5222 15.036 28.0482 14.4434C28.4347 14.0078 28.7781 14.3665 29.2652 14.5157C29.728 14.6576 30.1858 14.7065 30.6664 14.7065" stroke="#657E03" stroke-width="3" stroke-linecap="round"/>
<path d="M31.9688 38.8626C31.9688 37.5141 32.365 36.1444 33.0213 34.9681C33.3448 34.3884 33.4656 34.6467 33.7844 35.047C34.2609 35.6454 35.0256 36.5967 35.9027 36.1456C36.7618 35.7038 37.7426 33.2618 38.7248 34.1458C39.2464 34.6152 39.4878 34.6643 39.9945 34.0669C40.5671 33.3917 41.0361 32.5575 41.5602 31.8762" stroke="#657E03" stroke-width="3" stroke-linecap="round"/>
</svg>
