<svg width="589" height="589" viewBox="0 0 589 589" fill="none" xmlns="http://www.w3.org/2000/svg">
<g clip-path="url(#clip0_122_2794)">
<rect x="1" y="1" width="48" height="48" fill="#99B213" stroke="#657E03" stroke-width="2"/>
<rect x="50" y="1" width="48" height="48" fill="#99B213" stroke="#657E03" stroke-width="2"/>
<rect x="99" y="1" width="48" height="48" fill="#99B213" stroke="#657E03" stroke-width="2"/>
<rect x="148" y="1" width="48" height="48" fill="#99B213" stroke="#657E03" stroke-width="2"/>
<rect x="197" y="1" width="48" height="48" fill="#99B213" stroke="#657E03" stroke-width="2"/>
<rect x="246" y="1" width="48" height="48" fill="#FFDEAB" stroke="#E29251" stroke-width="2"/>
<rect x="295" y="1" width="48" height="48" fill="#FFDEAB" stroke="#E29251" stroke-width="2"/>
<rect x="344" y="1" width="48" height="48" fill="#99B213" stroke="#657E03" stroke-width="2"/>
<rect x="393" y="1" width="48" height="48" fill="#99B213" stroke="#657E03" stroke-width="2"/>
<rect x="442" y="1" width="48" height="48" fill="#99B213" stroke="#657E03" stroke-width="2"/>
<rect x="491" y="1" width="48" height="48" fill="#99B213" stroke="#657E03" stroke-width="2"/>
<rect x="540" y="1" width="48" height="48" fill="#99B213" stroke="#657E03" stroke-width="2"/>
<rect x="1" y="50" width="48" height="48" fill="#99B213" stroke="#657E03" stroke-width="2"/>
<rect x="50" y="50" width="48" height="48" fill="#99B213" stroke="#657E03" stroke-width="2"/>
<rect x="99" y="50" width="48" height="48" fill="#99B213" stroke="#657E03" stroke-width="2"/>
<rect x="148" y="50" width="48" height="48" fill="#FFDEAB" stroke="#E29251" stroke-width="2"/>
<rect x="197" y="50" width="48" height="48" fill="#FFDEAB" stroke="#E29251" stroke-width="2"/>
<rect x="246" y="50" width="48" height="48" fill="#FFDEAB" stroke="#E29251" stroke-width="2"/>
<rect x="295" y="50" width="48" height="48" fill="#FFDEAB" stroke="#E29251" stroke-width="2"/>
<rect x="344" y="50" width="48" height="48" fill="#FFDEAB" stroke="#E29251" stroke-width="2"/>
<rect x="393" y="50" width="48" height="48" fill="#99B213" stroke="#657E03" stroke-width="2"/>
<rect x="442" y="50" width="48" height="48" fill="#99B213" stroke="#657E03" stroke-width="2"/>
<rect x="491" y="50" width="48" height="48" fill="#99B213" stroke="#657E03" stroke-width="2"/>
<path d="M503.733 85.1391C503.708 84.614 503.703 83.9765 503.555 83.4748C503.333 82.7205 504.786 85.7458 505.252 85.1128C505.472 84.8152 505.769 82.1524 506.035 82.2315C506.463 82.3586 506.714 82.7605 507.167 82.5341" stroke="#657E03" stroke-width="3" stroke-linecap="round"/>
<path d="M510.245 69.864C510.347 68.9153 510.534 67.9946 510.587 67.0352C510.606 66.6936 510.608 65.7954 510.719 65.4103C510.927 64.6876 511.696 65.1878 512.127 65.3774C512.55 65.5638 514.416 66.8101 514.916 66.43C515.402 66.0602 515.356 65.0463 515.455 64.5091C515.556 63.9635 515.615 64.2258 515.995 64.338C516.844 64.5889 517.521 64.036 518.047 63.4434C518.434 63.0078 518.777 63.3665 519.264 63.5157C519.727 63.6576 520.185 63.7065 520.665 63.7065" stroke="#657E03" stroke-width="3" stroke-linecap="round"/>
<path d="M521.969 87.8626C521.969 86.5141 522.365 85.1444 523.021 83.9681C523.345 83.3884 523.466 83.6467 523.784 84.047C524.261 84.6454 525.026 85.5967 525.903 85.1456C526.762 84.7038 527.743 82.2618 528.725 83.1458C529.246 83.6152 529.488 83.6643 529.994 83.0669C530.567 82.3917 531.036 81.5575 531.56 80.8762" stroke="#657E03" stroke-width="3" stroke-linecap="round"/>
<rect x="540" y="50" width="48" height="48" fill="#99B213" stroke="#657E03" stroke-width="2"/>
<rect x="1" y="99" width="48" height="48" fill="#99B213" stroke="#657E03" stroke-width="2"/>
<rect x="50" y="99" width="48" height="48" fill="#99B213" stroke="#657E03" stroke-width="2"/>
<rect x="99" y="99" width="48" height="48" fill="#99B213" stroke="#657E03" stroke-width="2"/>
<rect x="148" y="99" width="48" height="48" fill="#FFDEAB" stroke="#E29251" stroke-width="2"/>
<rect x="197" y="99" width="48" height="48" fill="#99B213" stroke="#657E03" stroke-width="2"/>
<rect x="246" y="99" width="48" height="48" fill="#99B213" stroke="#657E03" stroke-width="2"/>
<rect x="295" y="99" width="48" height="48" fill="#99B213" stroke="#657E03" stroke-width="2"/>
<rect x="344" y="99" width="48" height="48" fill="#FFDEAB" stroke="#E29251" stroke-width="2"/>
<rect x="393" y="99" width="48" height="48" fill="#99B213" stroke="#657E03" stroke-width="2"/>
<rect x="442" y="99" width="48" height="48" fill="#99B213" stroke="#657E03" stroke-width="2"/>
<rect x="491" y="99" width="48" height="48" fill="#99B213" stroke="#657E03" stroke-width="2"/>
<rect x="540" y="99" width="48" height="48" fill="#99B213" stroke="#657E03" stroke-width="2"/>
<rect x="1" y="148" width="48" height="48" fill="#99B213" stroke="#657E03" stroke-width="2"/>
<rect x="50" y="148" width="48" height="48" fill="#99B213" stroke="#657E03" stroke-width="2"/>
<path d="M62.7327 183.139C62.7077 182.614 62.7027 181.977 62.5551 181.475C62.3333 180.72 63.786 183.746 64.2524 183.113C64.4716 182.815 64.7692 180.152 65.0352 180.231C65.4629 180.359 65.7138 180.761 66.1667 180.534" stroke="#657E03" stroke-width="3" stroke-linecap="round"/>
<path d="M69.2451 167.864C69.3468 166.915 69.5339 165.995 69.5872 165.035C69.6062 164.694 69.6081 163.795 69.7188 163.41C69.9266 162.688 70.6961 163.188 71.1266 163.377C71.5496 163.564 73.4157 164.81 73.9158 164.43C74.4024 164.06 74.3562 163.046 74.4553 162.509C74.5559 161.963 74.6148 162.226 74.9947 162.338C75.8437 162.589 76.5212 162.036 77.0472 161.443C77.4338 161.008 77.7771 161.366 78.2642 161.516C78.727 161.658 79.1849 161.707 79.6654 161.707" stroke="#657E03" stroke-width="3" stroke-linecap="round"/>
<path d="M80.9688 185.863C80.9688 184.514 81.365 183.144 82.0213 181.968C82.3448 181.388 82.4656 181.647 82.7844 182.047C83.2609 182.645 84.0256 183.597 84.9027 183.146C85.7618 182.704 86.7426 180.262 87.7248 181.146C88.2464 181.615 88.4878 181.664 88.9945 181.067C89.5671 180.392 90.0361 179.558 90.5602 178.876" stroke="#657E03" stroke-width="3" stroke-linecap="round"/>
<rect x="99" y="148" width="48" height="48" fill="#99B213" stroke="#657E03" stroke-width="2"/>
<rect x="148" y="148" width="48" height="48" fill="#FFDEAB" stroke="#E29251" stroke-width="2"/>
<rect x="197" y="148" width="48" height="48" fill="#FFDEAB" stroke="#E29251" stroke-width="2"/>
<rect x="246" y="148" width="48" height="48" fill="#FFDEAB" stroke="#E29251" stroke-width="2"/>
<rect x="295" y="148" width="48" height="48" fill="#FFDEAB" stroke="#E29251" stroke-width="2"/>
<rect x="344" y="148" width="48" height="48" fill="#FFDEAB" stroke="#E29251" stroke-width="2"/>
<rect x="393" y="148" width="48" height="48" fill="#99B213" stroke="#657E03" stroke-width="2"/>
<rect x="442" y="148" width="48" height="48" fill="#99B213" stroke="#657E03" stroke-width="2"/>
<rect x="491" y="148" width="48" height="48" fill="#99B213" stroke="#657E03" stroke-width="2"/>
<rect x="540" y="148" width="48" height="48" fill="#99B213" stroke="#657E03" stroke-width="2"/>
<rect x="1" y="197" width="48" height="48" fill="#99B213" stroke="#657E03" stroke-width="2"/>
<rect x="50" y="197" width="48" height="48" fill="#99B213" stroke="#657E03" stroke-width="2"/>
<rect x="99" y="197" width="48" height="48" fill="#99B213" stroke="#657E03" stroke-width="2"/>
<rect x="148" y="197" width="48" height="48" fill="#99B213" stroke="#657E03" stroke-width="2"/>
<rect x="197" y="197" width="48" height="48" fill="#99B213" stroke="#657E03" stroke-width="2"/>
<rect x="246" y="197" width="48" height="48" fill="#FFDEAB" stroke="#E29251" stroke-width="2"/>
<rect x="295" y="197" width="48" height="48" fill="#FFDEAB" stroke="#E29251" stroke-width="2"/>
<rect x="344" y="197" width="48" height="48" fill="#99B213" stroke="#657E03" stroke-width="2"/>
<rect x="393" y="197" width="48" height="48" fill="#99B213" stroke="#657E03" stroke-width="2"/>
<rect x="442" y="197" width="48" height="48" fill="#99B213" stroke="#657E03" stroke-width="2"/>
<rect x="491" y="197" width="48" height="48" fill="#99B213" stroke="#657E03" stroke-width="2"/>
<rect x="540" y="197" width="48" height="48" fill="#99B213" stroke="#657E03" stroke-width="2"/>
<rect x="1" y="246" width="48" height="48" fill="#99B213" stroke="#657E03" stroke-width="2"/>
<rect x="50" y="246" width="48" height="48" fill="#99B213" stroke="#657E03" stroke-width="2"/>
<rect x="99" y="246" width="48" height="48" fill="#FFDEAB" stroke="#E29251" stroke-width="2"/>
<rect x="148" y="246" width="48" height="48" fill="#FFDEAB" stroke="#E29251" stroke-width="2"/>
<rect x="197" y="246" width="48" height="48" fill="#FFDEAB" stroke="#E29251" stroke-width="2"/>
<rect x="246" y="246" width="48" height="48" fill="#FFDEAB" stroke="#E29251" stroke-width="2"/>
<rect x="295" y="246" width="48" height="48" fill="#FFDEAB" stroke="#E29251" stroke-width="2"/>
<rect x="344" y="246" width="48" height="48" fill="#FFDEAB" stroke="#E29251" stroke-width="2"/>
<rect x="393" y="246" width="48" height="48" fill="#FFDEAB" stroke="#E29251" stroke-width="2"/>
<rect x="442" y="246" width="48" height="48" fill="#FFDEAB" stroke="#E29251" stroke-width="2"/>
<rect x="491" y="246" width="48" height="48" fill="#99B213" stroke="#657E03" stroke-width="2"/>
<rect x="540" y="246" width="48" height="48" fill="#99B213" stroke="#657E03" stroke-width="2"/>
<rect x="1" y="295" width="48" height="48" fill="#99B213" stroke="#657E03" stroke-width="2"/>
<rect x="50" y="295" width="48" height="48" fill="#99B213" stroke="#657E03" stroke-width="2"/>
<rect x="99" y="295" width="48" height="48" fill="#99B213" stroke="#657E03" stroke-width="2"/>
<rect x="148" y="295" width="48" height="48" fill="#99B213" stroke="#657E03" stroke-width="2"/>
<rect x="197" y="295" width="48" height="48" fill="#99B213" stroke="#657E03" stroke-width="2"/>
<rect x="246" y="295" width="48" height="48" fill="#99B213" stroke="#657E03" stroke-width="2"/>
<rect x="295" y="295" width="48" height="48" fill="#99B213" stroke="#657E03" stroke-width="2"/>
<rect x="344" y="295" width="48" height="48" fill="#99B213" stroke="#657E03" stroke-width="2"/>
<rect x="393" y="295" width="48" height="48" fill="#99B213" stroke="#657E03" stroke-width="2"/>
<rect x="442" y="295" width="48" height="48" fill="#FFDEAB" stroke="#E29251" stroke-width="2"/>
<rect x="491" y="295" width="48" height="48" fill="#FFDEAB" stroke="#E29251" stroke-width="2"/>
<rect x="540" y="295" width="48" height="48" fill="#FFDEAB" stroke="#E29251" stroke-width="2"/>
<rect x="1" y="344" width="48" height="48" fill="#99B213" stroke="#657E03" stroke-width="2"/>
<rect x="50" y="344" width="48" height="48" fill="#99B213" stroke="#657E03" stroke-width="2"/>
<rect x="99" y="344" width="48" height="48" fill="#99B213" stroke="#657E03" stroke-width="2"/>
<rect x="148" y="344" width="48" height="48" fill="#99B213" stroke="#657E03" stroke-width="2"/>
<rect x="197" y="344" width="48" height="48" fill="#99B213" stroke="#657E03" stroke-width="2"/>
<rect x="246" y="344" width="48" height="48" fill="#99B213" stroke="#657E03" stroke-width="2"/>
<rect x="295" y="344" width="48" height="48" fill="#FFDEAB" stroke="#E29251" stroke-width="2"/>
<rect x="344" y="344" width="48" height="48" fill="#FFDEAB" stroke="#E29251" stroke-width="2"/>
<rect x="393" y="344" width="48" height="48" fill="#FFDEAB" stroke="#E29251" stroke-width="2"/>
<rect x="442" y="344" width="48" height="48" fill="#FFDEAB" stroke="#E29251" stroke-width="2"/>
<rect x="491" y="344" width="48" height="48" fill="#99B213" stroke="#657E03" stroke-width="2"/>
<rect x="540" y="344" width="48" height="48" fill="#99B213" stroke="#657E03" stroke-width="2"/>
<rect x="1" y="393" width="48" height="48" fill="#99B213" stroke="#657E03" stroke-width="2"/>
<rect x="50" y="393" width="48" height="48" fill="#99B213" stroke="#657E03" stroke-width="2"/>
<rect x="99" y="393" width="48" height="48" fill="#99B213" stroke="#657E03" stroke-width="2"/>
<rect x="148" y="393" width="48" height="48" fill="#FFDEAB" stroke="#E29251" stroke-width="2"/>
<rect x="197" y="393" width="48" height="48" fill="#FFDEAB" stroke="#E29251" stroke-width="2"/>
<rect x="246" y="393" width="48" height="48" fill="#FFDEAB" stroke="#E29251" stroke-width="2"/>
<rect x="295" y="393" width="48" height="48" fill="#FFDEAB" stroke="#E29251" stroke-width="2"/>
<rect x="344" y="393" width="48" height="48" fill="#FFDEAB" stroke="#E29251" stroke-width="2"/>
<rect x="393" y="393" width="48" height="48" fill="#FFDEAB" stroke="#E29251" stroke-width="2"/>
<rect x="442" y="393" width="48" height="48" fill="#FFDEAB" stroke="#E29251" stroke-width="2"/>
<rect x="491" y="393" width="48" height="48" fill="#99B213" stroke="#657E03" stroke-width="2"/>
<rect x="540" y="393" width="48" height="48" fill="#99B213" stroke="#657E03" stroke-width="2"/>
<rect x="1" y="442" width="48" height="48" fill="#99B213" stroke="#657E03" stroke-width="2"/>
<rect x="50" y="442" width="48" height="48" fill="#99B213" stroke="#657E03" stroke-width="2"/>
<rect x="99" y="442" width="48" height="48" fill="#99B213" stroke="#657E03" stroke-width="2"/>
<rect x="148" y="442" width="48" height="48" fill="#99B213" stroke="#657E03" stroke-width="2"/>
<rect x="197" y="442" width="48" height="48" fill="#99B213" stroke="#657E03" stroke-width="2"/>
<path d="M209.733 477.139C209.708 476.614 209.703 475.977 209.555 475.475C209.333 474.72 210.786 477.746 211.252 477.113C211.472 476.815 211.769 474.152 212.035 474.231C212.463 474.359 212.714 474.761 213.167 474.534" stroke="#657E03" stroke-width="3" stroke-linecap="round"/>
<path d="M216.245 461.864C216.347 460.915 216.534 459.995 216.587 459.035C216.606 458.694 216.608 457.795 216.719 457.41C216.927 456.688 217.696 457.188 218.127 457.377C218.55 457.564 220.416 458.81 220.916 458.43C221.402 458.06 221.356 457.046 221.455 456.509C221.556 455.963 221.615 456.226 221.995 456.338C222.844 456.589 223.521 456.036 224.047 455.443C224.434 455.008 224.777 455.366 225.264 455.516C225.727 455.658 226.185 455.707 226.665 455.707" stroke="#657E03" stroke-width="3" stroke-linecap="round"/>
<path d="M227.969 479.863C227.969 478.514 228.365 477.144 229.021 475.968C229.345 475.388 229.466 475.647 229.784 476.047C230.261 476.645 231.026 477.597 231.903 477.146C232.762 476.704 233.743 474.262 234.725 475.146C235.246 475.615 235.488 475.664 235.994 475.067C236.567 474.392 237.036 473.558 237.56 472.876" stroke="#657E03" stroke-width="3" stroke-linecap="round"/>
<rect x="246" y="442" width="48" height="48" fill="#FFDEAB" stroke="#E29251" stroke-width="2"/>
<rect x="295" y="442" width="48" height="48" fill="#FFDEAB" stroke="#E29251" stroke-width="2"/>
<rect x="344" y="442" width="48" height="48" fill="#99B213" stroke="#657E03" stroke-width="2"/>
<rect x="393" y="442" width="48" height="48" fill="#99B213" stroke="#657E03" stroke-width="2"/>
<rect x="442" y="442" width="48" height="48" fill="#99B213" stroke="#657E03" stroke-width="2"/>
<rect x="491" y="442" width="48" height="48" fill="#99B213" stroke="#657E03" stroke-width="2"/>
<rect x="540" y="442" width="48" height="48" fill="#99B213" stroke="#657E03" stroke-width="2"/>
<rect x="1" y="491" width="48" height="48" fill="#99B213" stroke="#657E03" stroke-width="2"/>
<rect x="50" y="491" width="48" height="48" fill="#99B213" stroke="#657E03" stroke-width="2"/>
<rect x="99" y="491" width="48" height="48" fill="#99B213" stroke="#657E03" stroke-width="2"/>
<rect x="148" y="491" width="48" height="48" fill="#99B213" stroke="#657E03" stroke-width="2"/>
<rect x="197" y="491" width="48" height="48" fill="#99B213" stroke="#657E03" stroke-width="2"/>
<rect x="246" y="491" width="48" height="48" fill="#FFDEAB" stroke="#E29251" stroke-width="2"/>
<rect x="295" y="491" width="48" height="48" fill="#FFDEAB" stroke="#E29251" stroke-width="2"/>
<rect x="344" y="491" width="48" height="48" fill="#99B213" stroke="#657E03" stroke-width="2"/>
<rect x="393" y="491" width="48" height="48" fill="#99B213" stroke="#657E03" stroke-width="2"/>
<rect x="442" y="491" width="48" height="48" fill="#99B213" stroke="#657E03" stroke-width="2"/>
<rect x="491" y="491" width="48" height="48" fill="#99B213" stroke="#657E03" stroke-width="2"/>
<rect x="540" y="491" width="48" height="48" fill="#99B213" stroke="#657E03" stroke-width="2"/>
<rect x="1" y="540" width="48" height="48" fill="#99B213" stroke="#657E03" stroke-width="2"/>
<rect x="50" y="540" width="48" height="48" fill="#99B213" stroke="#657E03" stroke-width="2"/>
<rect x="99" y="540" width="48" height="48" fill="#99B213" stroke="#657E03" stroke-width="2"/>
<rect x="148" y="540" width="48" height="48" fill="#99B213" stroke="#657E03" stroke-width="2"/>
<rect x="197" y="540" width="48" height="48" fill="#FFDEAB" stroke="#E29251" stroke-width="2"/>
<rect x="246" y="540" width="48" height="48" fill="#FFDEAB" stroke="#E29251" stroke-width="2"/>
<rect x="295" y="540" width="48" height="48" fill="#FFDEAB" stroke="#E29251" stroke-width="2"/>
<rect x="344" y="540" width="48" height="48" fill="#FFDEAB" stroke="#E29251" stroke-width="2"/>
<rect x="393" y="540" width="48" height="48" fill="#99B213" stroke="#657E03" stroke-width="2"/>
<rect x="442" y="540" width="48" height="48" fill="#99B213" stroke="#657E03" stroke-width="2"/>
<rect x="491" y="540" width="48" height="48" fill="#99B213" stroke="#657E03" stroke-width="2"/>
<rect x="540" y="540" width="48" height="48" fill="#99B213" stroke="#657E03" stroke-width="2"/>
</g>
<path d="M0.5 24C0.5 11.0213 11.0213 0.5 24 0.5H565C577.979 0.5 588.5 11.0213 588.5 24V588.5H0.5V24Z" stroke="#657E03"/>
<defs>
<clipPath id="clip0_122_2794">
<path d="M0 24C0 10.7452 10.7452 0 24 0H565C578.255 0 589 10.7452 589 24V589H0V24Z" fill="white"/>
</clipPath>
</defs>
</svg>
