<?xml version="1.0" encoding="iso-8859-1"?>
<!-- Uploaded to: SVG Repo, www.svgrepo.com, Generator: SVG Repo Mixer Tools -->
<svg height="45px" width="45px" version="1.1" id="Layer_1" xmlns="http://www.w3.org/2000/svg" xmlns:xlink="http://www.w3.org/1999/xlink"
	 viewBox="0 0 512 512" xml:space="preserve">
<path style="fill:#CCC3A8;" d="M375.787,503.382h32.534h81.024c7.445,0,13.48-6.035,13.48-13.48v-3.313
	c0-7.445-6.035-13.48-13.48-13.48H408.32H102.571H21.547c-7.445,0-13.48,6.035-13.48,13.48v3.313c0,7.445,6.035,13.48,13.48,13.48
	h81.024h243.1"/>
<path style="fill:#C9B585;" d="M38.35,489.9v-3.313c0-7.445,6.035-13.48,13.48-13.48H29.243c-7.445,0-13.48,6.035-13.48,13.48v3.313
	c0,7.445,6.035,13.48,13.48,13.48H51.83C44.386,503.382,38.35,497.345,38.35,489.9z"/>
<polygon style="fill:#FFB92E;" points="389.353,442.835 329.505,442.835 327.951,442.835 306.629,442.835 305.075,442.835
	265.663,442.835 245.228,442.835 205.816,442.835 204.262,442.835 182.94,442.835 181.386,442.835 121.538,442.835 104.329,473.108
	181.386,473.108 182.94,473.108 204.262,473.108 205.816,473.108 228.019,473.108 282.872,473.108 305.075,473.108 306.629,473.108
	327.951,473.108 329.505,473.108 406.562,473.108 "/>
<path style="fill:#EF9A1D;" d="M137.544,478.751c-1.187-1.846-1.355-4.169-0.446-6.166l12.312-27.046
	c1.049-2.302,3.344-3.78,5.874-3.78h-22.587c-2.53,0-4.825,1.478-5.874,3.78l-12.312,27.046c-0.909,1.997-0.74,4.322,0.446,6.166
	c1.187,1.846,3.233,2.961,5.427,2.961h22.587C140.777,481.712,138.731,480.597,137.544,478.751z"/>
<path style="fill:#7C7A75;" d="M149.221,442.835H361.67c-9.645-49.875-53.533-87.543-106.224-87.543
	C202.754,355.292,158.866,392.96,149.221,442.835z"/>
<path style="fill:#6D6C69;" d="M274.436,355.899c-3.714-0.385-7.476-0.607-11.293-0.607c-52.692,0-96.58,37.668-106.224,87.543
	h22.587C188.452,396.572,226.868,360.834,274.436,355.899z"/>
<path style="fill:#E35F46;" d="M467.915,141.63c-10.359,5.893-22.343,9.257-35.114,9.257c-39.285,0-71.132-31.846-71.132-71.132
	s31.846-71.132,71.132-71.132s71.132,31.846,71.132,71.132c0,16.803-5.827,32.244-15.571,44.416"/>
<path style="fill:#D8422E;" d="M448.885,149.466c-0.164-0.033-0.325-0.071-0.487-0.106c-0.897-0.188-1.785-0.394-2.67-0.615
	c-0.223-0.056-0.447-0.11-0.669-0.168c-0.986-0.257-1.964-0.535-2.934-0.832c-0.198-0.061-0.393-0.126-0.59-0.189
	c-0.84-0.267-1.675-0.55-2.502-0.846c-0.2-0.071-0.399-0.14-0.599-0.213c-0.939-0.347-1.869-0.715-2.79-1.1
	c-0.218-0.091-0.435-0.187-0.653-0.281c-0.8-0.345-1.594-0.702-2.38-1.077c-0.166-0.079-0.336-0.155-0.5-0.234
	c-0.889-0.43-1.767-0.882-2.634-1.349c-0.233-0.125-0.464-0.253-0.694-0.382c-0.27-0.148-0.542-0.29-0.81-0.443l-0.077-0.067
	c-7.819-4.461-14.709-10.359-20.31-17.34l-0.061-0.052c-0.282-0.354-0.551-0.72-0.827-1.079c-0.265-0.343-0.535-0.683-0.793-1.031
	c-0.471-0.636-0.924-1.282-1.374-1.934c-0.156-0.224-0.317-0.441-0.471-0.667c-0.58-0.863-1.141-1.739-1.684-2.628
	c-0.203-0.334-0.397-0.677-0.597-1.014c-0.344-0.585-0.687-1.171-1.014-1.766c-0.213-0.387-0.418-0.78-0.624-1.171
	c-0.298-0.564-0.59-1.13-0.871-1.704c-0.2-0.404-0.395-0.812-0.588-1.221c-0.273-0.582-0.537-1.168-0.794-1.759
	c-0.176-0.403-0.353-0.805-0.521-1.211c-0.266-0.639-0.516-1.284-0.763-1.933c-0.139-0.365-0.284-0.727-0.418-1.095
	c-0.326-0.9-0.632-1.81-0.922-2.725c-0.038-0.119-0.082-0.238-0.118-0.357c-0.321-1.034-0.614-2.078-0.889-3.131
	c-0.09-0.347-0.168-0.7-0.253-1.05c-0.175-0.721-0.347-1.443-0.501-2.173c-0.088-0.414-0.166-0.829-0.246-1.245
	c-0.13-0.68-0.254-1.363-0.366-2.049c-0.07-0.432-0.137-0.867-0.199-1.301c-0.1-0.693-0.186-1.387-0.266-2.086
	c-0.047-0.426-0.097-0.85-0.139-1.278c-0.071-0.758-0.126-1.522-0.174-2.288c-0.022-0.368-0.053-0.732-0.07-1.1
	c-0.054-1.135-0.087-2.274-0.087-3.422c0-35.441,25.923-64.819,59.839-70.23c-3.678-0.587-7.449-0.902-11.293-0.902
	c-39.285,0-71.132,31.846-71.132,71.132c0,1.148,0.033,2.288,0.087,3.422c0.018,0.369,0.048,0.734,0.07,1.1
	c0.048,0.766,0.103,1.529,0.174,2.288c0.042,0.427,0.091,0.852,0.139,1.278c0.08,0.699,0.166,1.394,0.266,2.086
	c0.062,0.435,0.128,0.869,0.199,1.301c0.112,0.687,0.236,1.369,0.366,2.049c0.08,0.416,0.158,0.831,0.246,1.245
	c0.154,0.729,0.326,1.452,0.501,2.173c0.085,0.348,0.162,0.701,0.253,1.05c0.275,1.053,0.569,2.097,0.889,3.131
	c0.037,0.119,0.081,0.238,0.118,0.357c0.29,0.916,0.597,1.825,0.922,2.725c0.134,0.368,0.28,0.73,0.418,1.095
	c0.246,0.649,0.497,1.294,0.763,1.933c0.168,0.407,0.344,0.808,0.521,1.211c0.257,0.59,0.521,1.177,0.794,1.759
	c0.194,0.409,0.388,0.816,0.588,1.221c0.282,0.573,0.573,1.14,0.871,1.704c0.205,0.392,0.411,0.784,0.624,1.171
	c0.328,0.595,0.67,1.181,1.014,1.766c0.199,0.338,0.393,0.681,0.597,1.014c0.544,0.888,1.105,1.766,1.684,2.628
	c0.154,0.226,0.315,0.443,0.471,0.667c0.45,0.651,0.903,1.298,1.374,1.934c0.258,0.348,0.528,0.688,0.793,1.031
	c0.276,0.359,0.545,0.725,0.827,1.079l0.061,0.052c5.6,6.981,12.49,12.879,20.31,17.34l0.077,0.067
	c0.268,0.153,0.54,0.295,0.81,0.443c0.231,0.128,0.461,0.256,0.694,0.382c0.868,0.467,1.745,0.919,2.634,1.349
	c0.165,0.08,0.335,0.156,0.5,0.234c0.785,0.374,1.58,0.731,2.38,1.077c0.218,0.094,0.435,0.189,0.653,0.281
	c0.92,0.385,1.851,0.753,2.79,1.1c0.2,0.073,0.399,0.142,0.599,0.213c0.828,0.297,1.662,0.58,2.502,0.846
	c0.198,0.063,0.393,0.128,0.59,0.189c0.969,0.298,1.948,0.575,2.934,0.832c0.222,0.059,0.446,0.113,0.669,0.168
	c0.884,0.222,1.773,0.427,2.67,0.615c0.162,0.034,0.324,0.072,0.487,0.106c1.011,0.204,2.033,0.384,3.059,0.546
	c0.244,0.038,0.485,0.072,0.729,0.109c0.96,0.141,1.924,0.267,2.896,0.369c0.105,0.011,0.21,0.026,0.315,0.037
	c1.052,0.105,2.111,0.182,3.176,0.242c0.256,0.014,0.512,0.025,0.767,0.038c1.082,0.048,2.166,0.082,3.258,0.082
	c1.093,0,2.178-0.033,3.258-0.082c0.256-0.013,0.513-0.025,0.767-0.038c1.065-0.06,2.126-0.137,3.178-0.242
	c0.105-0.011,0.208-0.026,0.313-0.037c0.972-0.102,1.938-0.228,2.896-0.369c0.244-0.035,0.487-0.07,0.729-0.109
	c0.051-0.009,0.101-0.019,0.152-0.027C450.817,149.83,449.847,149.661,448.885,149.466z"/>
<g style="opacity:0.15;">
	<path style="fill:#F5F5F5;" d="M475.649,114.368c13.026,0,24.759-5.506,33.025-14.308c0.227-0.768,0.454-1.535,0.655-2.312
		c0.09-0.347,0.168-0.7,0.254-1.05c0.176-0.721,0.346-1.443,0.502-2.173c0.086-0.414,0.163-0.829,0.244-1.245
		c0.132-0.68,0.255-1.363,0.367-2.049c0.07-0.432,0.136-0.867,0.199-1.301c0.099-0.693,0.186-1.387,0.265-2.086
		c0.048-0.426,0.099-0.85,0.139-1.278c0.072-0.758,0.126-1.522,0.174-2.288c0.023-0.368,0.055-0.732,0.071-1.1
		c0.055-1.135,0.086-2.274,0.086-3.422c0-22.069-10.052-41.791-25.826-54.839c-3.266-0.748-6.661-1.156-10.154-1.156
		c-25.022,0-45.304,20.283-45.304,45.303C430.346,94.085,450.629,114.368,475.649,114.368z"/>
</g>
<path style="fill:#CCC3A8;" d="M326.819,292.495l83.803-145.153c-9.812-3.218-18.681-8.504-26.091-15.355l-4.294,7.435
	l-15.058,26.081L255.603,355.296c11.19,0.016,21.976,1.739,32.122,4.909l26.318-45.58"/>
<path style="fill:#231F20;" d="M489.344,465.041h-78.089l-14.889-26.193c-1.434-2.523-4.112-4.081-7.014-4.081h-21.248
	c-9.208-36.261-35.201-65.135-68.591-78.848l21.514-37.262c2.228-3.858,0.906-8.792-2.952-11.019
	c-3.856-2.226-8.792-0.907-11.019,2.952l-23.183,40.151c-0.982-0.247-1.969-0.472-2.957-0.694c-0.037-0.009-0.073-0.017-0.111-0.026
	c-1.589-0.354-3.184-0.675-4.785-0.963c-0.189-0.034-0.381-0.062-0.571-0.096c-1.311-0.228-2.627-0.432-3.945-0.615
	c-0.424-0.059-0.848-0.116-1.273-0.171c-0.373-0.047-0.745-0.106-1.119-0.15l117.671-203.813c3.847,2.757,7.918,5.147,12.194,7.162
	l-79.145,137.084c-2.228,3.858-0.906,8.792,2.952,11.019c3.86,2.226,8.793,0.907,11.019-2.952l80.677-139.738
	c5.884,1.399,12.013,2.162,18.32,2.162c13.721,0,27.242-3.565,39.101-10.312c3.873-2.204,5.226-7.129,3.025-11.001
	c-2.205-3.874-7.13-5.224-11.001-3.024c-9.434,5.367-20.196,8.203-31.125,8.203c-7.12,0-13.96-1.204-20.349-3.388
	c-0.659-0.225-1.314-0.457-1.963-0.702c-0.473-0.18-0.944-0.367-1.412-0.558c-0.461-0.187-0.921-0.38-1.377-0.578
	c-0.615-0.268-1.227-0.543-1.833-0.829c-0.268-0.127-0.535-0.257-0.8-0.387c-0.743-0.366-1.482-0.739-2.208-1.133
	c-0.087-0.047-0.172-0.096-0.259-0.143c-19.567-10.719-32.865-31.509-32.865-55.347c0-34.774,28.292-63.065,63.065-63.065
	s63.065,28.292,63.065,63.065c0,14.48-4.773,28.096-13.802,39.375c-2.784,3.477-2.221,8.554,1.257,11.339
	c3.476,2.784,8.554,2.22,11.339-1.257C505.842,115.241,512,97.676,512,79.752c0-43.671-35.528-79.199-79.199-79.199
	s-79.199,35.528-79.199,79.199c0,20.614,7.923,39.407,20.874,53.512L250.889,347.326c-51.413,2.006-95.498,37.797-108.103,87.442
	h-21.248c-2.901,0-5.58,1.557-7.014,4.081l-14.889,26.193H21.547C9.666,465.041,0,474.707,0,486.588v3.313
	c0,11.881,9.666,21.547,21.547,21.547h324.124c4.456,0,8.067-3.611,8.067-8.067s-3.611-8.067-8.067-8.067H21.547
	c-2.985,0-5.413-2.429-5.413-5.413v-3.313c0-2.985,2.429-5.413,5.413-5.413h82.783h302.232h82.783c2.985,0,5.413,2.429,5.413,5.413
	v3.313c0,2.985-2.429,5.413-5.413,5.413H375.787c-4.456,0-8.067,3.611-8.067,8.067s3.611,8.067,8.067,8.067h113.558
	c11.881,0,21.547-9.666,21.547-21.547v-3.313C510.891,474.707,501.225,465.041,489.344,465.041z M255.446,363.359
	c0.041,0,0.081,0.002,0.12,0.002c0.009,0,0.017,0.002,0.025,0.002c0.795,0.001,1.586,0.028,2.379,0.048
	c0.476,0.012,0.955,0.011,1.429,0.029c0.655,0.026,1.308,0.075,1.962,0.113c0.675,0.04,1.353,0.072,2.026,0.126
	c0.592,0.046,1.18,0.112,1.769,0.169c0.741,0.072,1.483,0.141,2.22,0.229c0.526,0.062,1.05,0.14,1.574,0.21
	c0.808,0.11,1.615,0.222,2.417,0.351c0.453,0.073,0.905,0.155,1.356,0.233c0.882,0.155,1.762,0.315,2.636,0.493
	c0.373,0.075,0.744,0.156,1.116,0.236c0.963,0.208,1.922,0.425,2.876,0.659c0.284,0.07,0.567,0.142,0.85,0.214
	c1.053,0.269,2.101,0.553,3.14,0.855c0.186,0.054,0.373,0.108,0.559,0.164c31.983,9.499,57.751,34.614,67.495,67.275H159.494
	C171.998,392.853,210.889,363.359,255.446,363.359z M118.194,465.041l8.038-14.139h22.99H361.67h22.99l8.038,14.139H118.194z"/>
</svg>
