<svg width="50" height="44" viewBox="0 0 50 44" fill="none" xmlns="http://www.w3.org/2000/svg">
<g clip-path="url(#clip0_154_2134)">
<path fill-rule="evenodd" clip-rule="evenodd" d="M41.943 -0.0488281C42.4964 -0.0488281 43.0497 -0.0488281 43.6031 -0.0488281C43.6365 0.0330318 43.7016 0.065584 43.7984 0.0488281C40.1727 1.00486 38.2195 3.34861 37.9391 7.08008C38.1229 10.8769 40.0435 13.2857 43.7008 14.3066C42.6516 14.4517 41.6099 14.3866 40.5758 14.1113C39.5734 13.7078 38.662 13.1544 37.8414 12.4512C35.7925 10.4095 35.1252 7.96809 35.8395 5.12695C36.877 2.21718 38.9114 0.49192 41.943 -0.0488281Z" fill="#D8432E"/>
<path opacity="0.989" fill-rule="evenodd" clip-rule="evenodd" d="M43.7988 0.0488281C45.1461 0.202161 46.318 0.722994 47.3145 1.61133C44.6384 1.31307 42.8317 2.41983 41.8945 4.93164C41.4509 7.31509 42.281 9.08918 44.3848 10.2539C46.3617 11.0206 48.1195 10.6788 49.6582 9.22852C49.0266 11.416 47.6594 12.9622 45.5566 13.8672C44.962 14.1217 44.3436 14.2682 43.7012 14.3066C40.0438 13.2857 38.1232 10.8769 37.9395 7.08008C38.2199 3.34861 40.173 1.00486 43.7988 0.0488281Z" fill="#E25E45"/>
<path opacity="0.997" fill-rule="evenodd" clip-rule="evenodd" d="M47.3141 1.61121C48.7195 2.75704 49.5984 4.22188 49.9509 6.00574C49.9509 6.78699 49.9509 7.56824 49.9509 8.34949C49.8655 8.64586 49.7678 8.93883 49.6579 9.22839C48.1192 10.6787 46.3614 11.0205 44.3845 10.2538C42.2806 9.08906 41.4506 7.31497 41.8942 4.93152C42.8314 2.41971 44.6381 1.31295 47.3141 1.61121Z" fill="#E5745F"/>
<path opacity="0.962" fill-rule="evenodd" clip-rule="evenodd" d="M37.8418 12.4512C38.6624 13.1544 39.5738 13.7078 40.5762 14.1113C36.4746 21.2077 32.373 28.304 28.2715 35.4004C28.2112 35.4112 28.1624 35.4438 28.125 35.498C27.3783 35.2543 26.6134 35.0915 25.8301 35.0098C25.4942 35.0339 25.1687 35.0014 24.8535 34.9121C29.1829 27.4251 33.5124 19.9382 37.8418 12.4512Z" fill="url(#paint0_linear_154_2134)"/>
<path d="M26.2082 38.7857L21.7296 40.4633L21.1397 38.0863L20.5497 35.7093L22.4852 34.4603L25.6303 32.4308L29.4506 34.2091L31.6088 36.7628L26.2082 38.7857Z" fill="url(#paint1_linear_154_2134)"/>
<path d="M20.2 44H27L26.6 40.4419L26.2 36.8837L23 36.1661L17.8 35L13.6 39.3953L12 44H20.2Z" fill="url(#paint2_linear_154_2134)"/>
<path d="M29.2533 44H22L22.4267 40.4419L22.8533 36.8837L26.2667 36.1661L31.8133 35L36.2933 39.3953L38 44H29.2533Z" fill="url(#paint3_linear_154_2134)"/>
</g>
<defs>
<linearGradient id="paint0_linear_154_2134" x1="32.7148" y1="12.4512" x2="32.7148" y2="35.498" gradientUnits="userSpaceOnUse">
<stop stop-color="#FFDEAB"/>
<stop offset="1" stop-color="#B6873E"/>
</linearGradient>
<linearGradient id="paint1_linear_154_2134" x1="27.3173" y1="30.1179" x2="25.7207" y2="40.2645" gradientUnits="userSpaceOnUse">
<stop stop-color="#D9D9D9"/>
<stop offset="1" stop-color="#737373"/>
</linearGradient>
<linearGradient id="paint2_linear_154_2134" x1="14.4" y1="32.6977" x2="21.898" y2="45.5942" gradientUnits="userSpaceOnUse">
<stop stop-color="#D9D9D9"/>
<stop offset="1" stop-color="#737373"/>
</linearGradient>
<linearGradient id="paint3_linear_154_2134" x1="35.44" y1="32.6977" x2="28.1888" y2="46.0012" gradientUnits="userSpaceOnUse">
<stop stop-color="#D9D9D9"/>
<stop offset="1" stop-color="#737373"/>
</linearGradient>
<clipPath id="clip0_154_2134">
<rect width="50" height="44" fill="white"/>
</clipPath>
</defs>
</svg>
