<svg width="327" height="89" viewBox="0 0 327 89" fill="none" xmlns="http://www.w3.org/2000/svg">
<rect y="14.6744" width="84.5068" height="75.1992" rx="16" transform="rotate(-10 0 14.6744)" fill="#51C9FD"/>
<g filter="url(#filter0_d_304_2161)">
<path d="M68.248 69V22.28H76.248V47.624H81.88L90.264 33.8H99.16L88.728 50.824L99.544 69H90.456L81.88 54.408H76.248V69H68.248Z" fill="white"/>
</g>
<path d="M118.2 70.576C113.677 70.576 110.093 69.3173 107.448 66.8C104.803 64.24 103.48 60.8053 103.48 56.496V48.304C103.48 43.952 104.803 40.5173 107.448 38C110.093 35.4827 113.677 34.224 118.2 34.224C122.723 34.224 126.307 35.4827 128.952 38C131.597 40.5173 132.92 43.952 132.92 48.304V56.496C132.92 60.8053 131.597 64.24 128.952 66.8C126.307 69.3173 122.723 70.576 118.2 70.576ZM118.2 63.6C120.333 63.6 121.976 63.024 123.128 61.872C124.323 60.6773 124.92 58.9707 124.92 56.752V48.048C124.92 45.8293 124.323 44.144 123.128 42.992C121.976 41.7973 120.333 41.2 118.2 41.2C116.067 41.2 114.403 41.7973 113.208 42.992C112.056 44.144 111.48 45.8293 111.48 48.048V56.752C111.48 58.9707 112.056 60.6773 113.208 61.872C114.403 63.024 116.067 63.6 118.2 63.6ZM152.735 70.64C149.322 70.64 146.548 69.424 144.415 66.992C142.324 64.56 141.279 61.296 141.279 57.2V47.664C141.279 43.5253 142.324 40.24 144.415 37.808C146.506 35.376 149.279 34.16 152.735 34.16C155.167 34.16 157.215 34.7787 158.879 36.016C160.586 37.2533 161.78 38.9813 162.463 41.2L162.207 33.136V23.28H170.207V70H162.399V63.6C161.759 65.8187 160.607 67.5467 158.943 68.784C157.279 70.0213 155.21 70.64 152.735 70.64ZM155.743 63.728C157.791 63.728 159.37 63.1093 160.479 61.872C161.631 60.6347 162.207 58.8853 162.207 56.624V48.176C162.207 45.9147 161.631 44.1653 160.479 42.928C159.37 41.6907 157.791 41.072 155.743 41.072C153.695 41.072 152.095 41.6267 150.943 42.736C149.834 43.8453 149.279 45.552 149.279 47.856V56.944C149.279 59.248 149.834 60.9547 150.943 62.064C152.095 63.1733 153.695 63.728 155.743 63.728ZM179.334 70V62.768H191.366V42.032H180.614V34.8H199.366V62.768H210.182V70H179.334ZM194.822 28.912C193.201 28.912 191.921 28.5067 190.982 27.696C190.043 26.8427 189.574 25.712 189.574 24.304C189.574 22.896 190.043 21.7867 190.982 20.976C191.921 20.1227 193.201 19.696 194.822 19.696C196.443 19.696 197.723 20.1227 198.662 20.976C199.601 21.7867 200.07 22.896 200.07 24.304C200.07 25.712 199.601 26.8427 198.662 27.696C197.723 28.5067 196.443 28.912 194.822 28.912ZM225.005 70V46.832H215.341V39.6H225.005V33.392C225.005 30.32 226.029 27.8667 228.077 26.032C230.125 24.1973 232.834 23.28 236.205 23.28H246.509V30.32H236.397C235.373 30.32 234.541 30.6187 233.901 31.216C233.304 31.7707 233.005 32.5387 233.005 33.52V39.6H246.509V46.832H233.005V70H225.005ZM254.804 70V62.768H266.836V42.032H256.084V34.8H274.836V62.768H285.652V70H254.804ZM270.292 28.912C268.671 28.912 267.391 28.5067 266.452 27.696C265.513 26.8427 265.044 25.712 265.044 24.304C265.044 22.896 265.513 21.7867 266.452 20.976C267.391 20.1227 268.671 19.696 270.292 19.696C271.913 19.696 273.193 20.1227 274.132 20.976C275.071 21.7867 275.54 22.896 275.54 24.304C275.54 25.712 275.071 26.8427 274.132 27.696C273.193 28.5067 271.913 28.912 270.292 28.912ZM289.979 70L302.267 51.824L290.811 34.8H299.835L305.275 43.44C305.616 43.952 305.936 44.528 306.235 45.168C306.534 45.808 306.747 46.32 306.875 46.704C307.046 46.32 307.259 45.808 307.515 45.168C307.814 44.528 308.134 43.952 308.475 43.44L313.915 34.8H323.003L311.547 51.824L323.771 70H314.683L308.603 60.336C308.262 59.824 307.92 59.248 307.579 58.608C307.28 57.9253 307.046 57.392 306.875 57.008C306.704 57.392 306.47 57.9253 306.171 58.608C305.872 59.248 305.552 59.824 305.211 60.336L299.067 70H289.979Z" fill="white"/>
<g filter="url(#filter1_d_304_2161)">
<path d="M48.6519 40.2954C52.5759 41.6113 53.4647 46.6519 50.2274 49.2305L30.6801 64.7998C27.5337 67.306 22.8226 65.5968 22.1355 61.7L17.9894 38.1859C17.3022 34.2891 21.1447 31.0718 24.9584 32.3506L48.6519 40.2954Z" fill="white"/>
</g>
<defs>
<filter id="filter0_d_304_2161" x="65.248" y="22.28" width="34.2959" height="49.72" filterUnits="userSpaceOnUse" color-interpolation-filters="sRGB">
<feFlood flood-opacity="0" result="BackgroundImageFix"/>
<feColorMatrix in="SourceAlpha" type="matrix" values="0 0 0 0 0 0 0 0 0 0 0 0 0 0 0 0 0 0 127 0" result="hardAlpha"/>
<feOffset dx="-3" dy="3"/>
<feComposite in2="hardAlpha" operator="out"/>
<feColorMatrix type="matrix" values="0 0 0 0 0 0 0 0 0 0 0 0 0 0 0 0 0 0 0.15 0"/>
<feBlend mode="normal" in2="BackgroundImageFix" result="effect1_dropShadow_304_2161"/>
<feBlend mode="normal" in="SourceGraphic" in2="effect1_dropShadow_304_2161" result="shape"/>
</filter>
<filter id="filter1_d_304_2161" x="9.7417" y="23.7418" width="47.6416" height="50.579" filterUnits="userSpaceOnUse" color-interpolation-filters="sRGB">
<feFlood flood-opacity="0" result="BackgroundImageFix"/>
<feColorMatrix in="SourceAlpha" type="matrix" values="0 0 0 0 0 0 0 0 0 0 0 0 0 0 0 0 0 0 127 0" result="hardAlpha"/>
<feOffset dy="2.9375"/>
<feComposite in2="hardAlpha" operator="out"/>
<feColorMatrix type="matrix" values="0 0 0 0 0 0 0 0 0 0 0 0 0 0 0 0 0 0 0.15 0"/>
<feBlend mode="normal" in2="BackgroundImageFix" result="effect1_dropShadow_304_2161"/>
<feBlend mode="normal" in="SourceGraphic" in2="effect1_dropShadow_304_2161" result="shape"/>
</filter>
</defs>
</svg>
