<svg width="25" height="37" viewBox="0 0 25 37" fill="none" xmlns="http://www.w3.org/2000/svg">
<g filter="url(#filter0_d_337_4980)">
<path d="M11.5591 23.3785C10.7271 23.3785 10.0711 23.1065 9.59106 22.5625C9.11106 22.0185 8.87106 21.2985 8.87106 20.4025C8.87106 19.5385 8.96706 18.7385 9.15906 18.0025C9.38306 17.2345 9.71906 16.4825 10.1671 15.7465C10.6471 14.9785 11.2711 14.2105 12.0391 13.4425C12.5511 12.8985 12.9511 12.4185 13.2391 12.0025C13.5591 11.5865 13.7831 11.2025 13.9111 10.8505C14.0391 10.4665 14.1031 10.0825 14.1031 9.6985C14.1031 8.9625 13.8311 8.4025 13.2871 8.0185C12.7431 7.6345 11.9591 7.4425 10.9351 7.4425C9.91106 7.4425 8.95106 7.5545 8.05506 7.7785C7.15906 8.0025 6.29506 8.3385 5.46306 8.7865C4.50306 9.2985 3.65506 9.4745 2.91906 9.3145C2.18306 9.1225 1.60706 8.7385 1.19106 8.1625C0.775063 7.5865 0.535063 6.9145 0.471063 6.1465C0.439063 5.3785 0.647063 4.6265 1.09506 3.8905C1.57506 3.1545 2.31106 2.5465 3.30306 2.0665C4.61506 1.4265 6.00706 0.962499 7.47906 0.674499C8.95106 0.354499 10.3271 0.194499 11.6071 0.194499C13.8151 0.194499 15.7511 0.546499 17.4151 1.2505C19.1111 1.9545 20.4231 2.9465 21.3511 4.2265C22.2791 5.4745 22.7431 6.9465 22.7431 8.6425C22.7431 9.6025 22.5991 10.5145 22.3111 11.3785C22.0231 12.2425 21.5591 13.0905 20.9191 13.9225C20.2791 14.7225 19.3831 15.5385 18.2311 16.3705C17.2391 17.1065 16.4711 17.7625 15.9271 18.3385C15.3831 18.8825 14.9831 19.4105 14.7271 19.9225C14.5031 20.4345 14.3271 20.9945 14.1991 21.6025C14.0711 22.1145 13.7991 22.5465 13.3831 22.8985C12.9671 23.2185 12.3591 23.3785 11.5591 23.3785ZM11.4151 34.8505C9.94306 34.8505 8.77506 34.4185 7.91106 33.5545C7.07906 32.6905 6.66306 31.5545 6.66306 30.1465C6.66306 28.7705 7.07906 27.6665 7.91106 26.8345C8.77506 25.9705 9.94306 25.5385 11.4151 25.5385C12.8871 25.5385 14.0391 25.9705 14.8711 26.8345C15.7031 27.6665 16.1191 28.7705 16.1191 30.1465C16.1191 31.5545 15.7031 32.6905 14.8711 33.5545C14.0391 34.4185 12.8871 34.8505 11.4151 34.8505Z" fill="white"/>
</g>
<defs>
<filter id="filter0_d_337_4980" x="0.422852" y="0.194458" width="24.3203" height="36.656" filterUnits="userSpaceOnUse" color-interpolation-filters="sRGB">
<feFlood flood-opacity="0" result="BackgroundImageFix"/>
<feColorMatrix in="SourceAlpha" type="matrix" values="0 0 0 0 0 0 0 0 0 0 0 0 0 0 0 0 0 0 127 0" result="hardAlpha"/>
<feOffset dx="2" dy="2"/>
<feComposite in2="hardAlpha" operator="out"/>
<feColorMatrix type="matrix" values="0 0 0 0 0 0 0 0 0 0 0 0 0 0 0 0 0 0 0.15 0"/>
<feBlend mode="normal" in2="BackgroundImageFix" result="effect1_dropShadow_337_4980"/>
<feBlend mode="normal" in="SourceGraphic" in2="effect1_dropShadow_337_4980" result="shape"/>
</filter>
</defs>
</svg>
