<svg width="28" height="42" viewBox="0 0 28 42" fill="none" xmlns="http://www.w3.org/2000/svg">
  <path d="M8.56787 28.7539V27.9531C8.56787 25.7396 8.75016 23.9753 9.11475 22.6602C9.49235 21.3451 10.0392 20.2904 10.7554 19.4961C11.4715 18.6888 12.3439 17.9531 13.3726 17.2891C14.1929 16.7682 14.922 16.2409 15.5601 15.707C16.2111 15.1602 16.7254 14.5742 17.103 13.9492C17.4806 13.3242 17.6694 12.6146 17.6694 11.8203C17.6694 11.0521 17.4871 10.375 17.1226 9.78906C16.758 9.20312 16.2567 8.7539 15.6187 8.44141C14.9937 8.11588 14.297 7.95312 13.5288 7.95312C12.7606 7.95312 12.0379 8.1289 11.3608 8.48047C10.6968 8.83203 10.1499 9.33333 9.72022 9.98437C9.30355 10.6224 9.0887 11.3971 9.07568 12.3086H0.0913087C0.130371 9.57422 0.761882 7.33463 1.98584 5.58984C3.22282 3.84505 4.85693 2.55599 6.88818 1.72265C8.91943 0.8763 11.159 0.453124 13.6069 0.453124C16.2892 0.453124 18.672 0.86979 20.7554 1.70312C22.8517 2.53646 24.4989 3.76693 25.6968 5.39453C26.8947 7.02213 27.4937 9.01432 27.4937 11.3711C27.4937 12.9206 27.2332 14.2878 26.7124 15.4727C26.1916 16.6576 25.4624 17.7057 24.5249 18.6172C23.6004 19.5156 22.5132 20.3359 21.2632 21.0781C20.2866 21.651 19.4728 22.25 18.8218 22.875C18.1838 23.5 17.702 24.2161 17.3765 25.0234C17.0509 25.8177 16.8882 26.7943 16.8882 27.9531V28.7539H8.56787ZM12.8843 41.5664C11.478 41.5664 10.2736 41.0716 9.271 40.082C8.28141 39.0924 7.79313 37.8945 7.80615 36.4883C7.79313 35.1081 8.28141 33.9297 9.271 32.9531C10.2736 31.9635 11.478 31.4688 12.8843 31.4688C14.2254 31.4688 15.4038 31.9635 16.4194 32.9531C17.4351 33.9297 17.9494 35.1081 17.9624 36.4883C17.9494 37.4258 17.702 38.2786 17.2202 39.0469C16.7515 39.8151 16.133 40.4271 15.3647 40.8828C14.6095 41.3385 13.7827 41.5664 12.8843 41.5664Z" fill="black" fill-opacity="0.33" />
</svg>
