<svg width="41" height="48" viewBox="0 0 41 48" fill="none" xmlns="http://www.w3.org/2000/svg">
<path d="M19.1771 5.09C16.8451 5.09 14.2931 5.552 11.5211 6.476C8.79311 7.356 6.17511 8.874 3.66711 11.03L0.697109 7.07C3.20511 4.914 6.10911 3.22 9.40911 1.988C12.7091 0.755997 16.1851 0.139997 19.8371 0.139997C23.4011 0.139997 26.5031 0.535998 29.1431 1.328C31.7831 2.076 33.9611 3.132 35.6771 4.496C37.4371 5.816 38.7571 7.378 39.6371 9.182C40.5171 10.986 40.9571 12.922 40.9571 14.99C40.9571 19.126 39.3951 22.47 36.2711 25.022C33.1911 27.574 28.9231 29.18 23.4671 29.84V33.8H14.8871V24.89C17.8351 24.89 20.3431 24.648 22.4111 24.164C24.4791 23.636 26.1511 22.932 27.4271 22.052C28.7031 21.172 29.6271 20.138 30.1991 18.95C30.7711 17.718 31.0571 16.398 31.0571 14.99C31.0571 13.582 30.7931 12.284 30.2651 11.096C29.7371 9.864 28.9671 8.808 27.9551 7.928C26.9431 7.048 25.6891 6.366 24.1931 5.882C22.7411 5.354 21.0691 5.09 19.1771 5.09ZM24.1271 42.71C24.1271 44.03 23.6651 45.196 22.7411 46.208C21.8611 47.176 20.6731 47.66 19.1771 47.66C17.6811 47.66 16.4711 47.176 15.5471 46.208C14.6671 45.196 14.2271 44.03 14.2271 42.71C14.2271 41.39 14.6671 40.246 15.5471 39.278C16.4711 38.266 17.6811 37.76 19.1771 37.76C20.6291 37.76 21.8171 38.266 22.7411 39.278C23.6651 40.246 24.1271 41.39 24.1271 42.71Z" fill="#666666"/>
</svg>
