<svg width="50" height="50" viewBox="0 0 50 50" fill="none" xmlns="http://www.w3.org/2000/svg">
<g clip-path="url(#clip0_149_2024)">
<path opacity="0.98" fill-rule="evenodd" clip-rule="evenodd" d="M14.3749 -0.125C18.8749 -0.125 23.3749 -0.125 27.8749 -0.125C30.4144 0.34408 32.9144 1.05242 35.3749 2C36.2246 2.6741 37.1414 3.25743 38.1249 3.75C38.8451 4.31968 39.3451 5.028 39.6249 5.875C38.7471 6.43665 37.8304 6.97833 36.8749 7.5C36.5641 7.78863 36.3141 8.12195 36.1249 8.5C34.5094 9.11228 32.8426 9.48728 31.1249 9.625C25.0704 10.4669 18.9871 10.7586 12.8749 10.5C11.2951 9.74287 9.62842 9.45122 7.87487 9.625C8.19344 8.73523 8.44344 7.81855 8.62487 6.875C10.1494 6.4939 11.6494 6.03557 13.1249 5.5C15.3238 5.25985 17.4904 5.38485 19.6249 5.875C21.1037 5.46875 22.6037 5.34375 24.1249 5.5C25.9469 5.89772 27.7801 6.23107 29.6249 6.5C29.6866 6.95333 29.7699 7.41168 29.8749 7.875C30.2559 7.61823 30.4226 7.24323 30.3749 6.75C30.3601 6.39107 30.2769 6.05775 30.1249 5.75C31.5411 5.29505 32.2076 4.33672 32.1249 2.875C27.9596 2.37503 23.793 1.87503 19.6249 1.375C16.3575 1.62982 13.1075 2.00482 9.87487 2.5C9.14987 3.0992 8.56654 3.80755 8.12487 4.625C6.66817 4.99468 6.00149 5.91135 6.12487 7.375C6.04154 7.375 5.95819 7.375 5.87487 7.375C5.40227 7.32412 5.02727 7.4908 4.74987 7.875C4.94849 11.17 4.03182 14.0867 1.99987 16.625C1.89196 18.1416 1.51696 19.5583 0.874869 20.875C0.687572 15.0348 2.31257 9.78482 5.74987 5.125C8.19469 2.63337 11.0697 0.883375 14.3749 -0.125Z" fill="#BAA9B8"/>
<path fill-rule="evenodd" clip-rule="evenodd" d="M7.8748 9.625C7.19595 8.94652 6.6126 8.19652 6.1248 7.375C6.00143 5.91135 6.6681 4.99468 8.1248 4.625C8.56648 3.80755 9.1498 3.0992 9.8748 2.5C13.1074 2.00482 16.3574 1.62982 19.6248 1.375C23.793 1.87503 27.9596 2.37503 32.1248 2.875C32.2076 4.33672 31.5411 5.29505 30.1248 5.75C30.2768 6.05775 30.3601 6.39107 30.3748 6.75C30.4226 7.24323 30.2558 7.61823 29.8748 7.875C29.7698 7.41168 29.6866 6.95333 29.6248 6.5C27.7801 6.23107 25.9468 5.89772 24.1248 5.5C22.6036 5.34375 21.1036 5.46875 19.6248 5.875C17.4904 5.38485 15.3237 5.25985 13.1248 5.5C11.6494 6.03557 10.1494 6.4939 8.6248 6.875C8.44338 7.81855 8.19338 8.73523 7.8748 9.625Z" fill="#B7A1B6"/>
<path opacity="0.984" fill-rule="evenodd" clip-rule="evenodd" d="M39.625 5.875C42.7952 10.796 44.6702 16.5877 45 22.5C44.9485 23.0123 44.3652 23.3456 44 23C43.8382 21.2223 42.7548 18.0556 42 16.5C42.244 15.0488 40.994 15.5488 40 14.5C39.8522 13.1816 40 14.625 40 12C38.375 14.625 38.9672 11.1532 38.5 10.5C38.0067 10.3761 39.0067 10.9595 38.5 11C38.614 13.8549 38.1972 14.1882 36 16C35.5445 17.5001 34.2945 18.6668 33 19.5C32.7327 20.2599 32.3162 20.7599 32 21.5C31.4247 21.8418 31.1747 23.0085 30.5 23C30.332 27.5132 29.4988 31.0132 29 35.5C27.5987 35.1693 27.1621 36.9192 25.7298 36.75C25.8923 38.5665 25.6624 37.8165 25 39.5C26.625 40.125 23.1683 40.5337 22.625 41C22.1637 40.8043 22.0386 42.971 21.5 43C19.6091 44.9255 17.5257 45.509 15 46.5C13.8729 45.7017 12.4979 44.8683 12.125 43.5C11.8627 44.0295 11.6127 42.821 11.125 43.125C11.3012 41.421 11.6346 39.7545 12.125 38.125C12.9114 37.6062 13.7447 37.148 14.625 36.75C15.5556 36.76 15.125 29.5 17 33C17.8036 31.7685 17.3869 31.8518 18 30.5C18.854 29.927 18.875 25 20.5 27C21.2083 26.2918 21.9167 27.7082 22.625 27C22 21.625 24.0506 21.3267 26.5 21.5C26.6727 20.2256 26.9645 18.9756 27.375 17.75C27.4425 13.9657 28.6925 14.5907 29.375 10.875C30.1075 10.6367 30.6908 10.22 31.125 9.625C32.8427 9.48728 34.5095 9.11228 36.125 8.5C36.3143 8.12195 36.5642 7.78863 36.875 7.5C37.8305 6.97833 38.7473 6.43665 39.625 5.875Z" fill="#907585"/>
<path fill-rule="evenodd" clip-rule="evenodd" d="M5.875 7.37489C5.24325 11.1798 4.99325 15.0132 5.125 18.8749C4.31748 18.8901 3.85913 19.3068 3.75 20.1249C3.66668 21.4582 3.58332 22.7916 3.5 24.1249C2.3469 26.3306 1.76356 28.6641 1.75 31.1249C2.02366 31.4231 2.23199 31.7566 2.375 32.1249C1.9052 32.3351 1.4052 32.4186 0.875 32.3749C0.875 29.6249 0.875 26.8749 0.875 24.1249C0.875 23.0416 0.875 21.9582 0.875 20.8749C1.5171 19.5582 1.89209 18.1415 2 16.6249C4.03195 14.0866 4.94862 11.1699 4.75 7.87489C5.0274 7.49069 5.4024 7.32401 5.875 7.37489Z" fill="#BEA1A9"/>
<path fill-rule="evenodd" clip-rule="evenodd" d="M5.875 7.375C5.95832 7.375 6.04168 7.375 6.125 7.375C6.6128 8.19652 7.19615 8.94652 7.875 9.625C9.62855 9.45122 11.2952 9.74287 12.875 10.5C18.9872 10.7586 25.0705 10.4669 31.125 9.625C30.6908 10.22 30.1075 10.6367 29.375 10.875C28.6925 14.5907 28.3175 18.3407 28.25 22.125C27.8395 23.3506 27.5477 24.6006 27.375 25.875C24.9256 25.7017 23.884 26.8685 24.25 29.375C23.5417 30.0832 22.8333 30.7918 22.125 31.5C21.229 32.0102 20.354 32.552 19.5 33.125C18.8869 34.4768 18.1786 35.7685 17.375 37C16.4723 36.8433 15.5556 36.76 14.625 36.75C13.7447 37.148 12.9114 37.6062 12.125 38.125C12.901 36.615 13.0677 35.0317 12.625 33.375C11.625 33.375 10.625 33.375 9.625 33.375C8.84178 32.4805 7.84177 32.1472 6.625 32.375C5.25618 32.1277 3.8395 32.0445 2.375 32.125C2.23199 31.7567 2.02366 31.4232 1.75 31.125C1.76356 28.6642 2.3469 26.3307 3.5 24.125C3.58332 22.7917 3.66668 21.4583 3.75 20.125C3.85913 19.3069 4.31748 18.8903 5.125 18.875C4.99325 15.0133 5.24325 11.1799 5.875 7.375Z" fill="#A2808E"/>
<path fill-rule="evenodd" clip-rule="evenodd" d="M42.8754 17.3751C42.8754 18.2084 42.8754 19.0418 42.8754 19.8751C42 20.8751 41.9218 19.3855 42 18.5C41.364 18.4011 41.9473 18.0678 41.5 18.5C41.3528 21.1033 40.0616 22.8534 38.6254 25.0001C39 26.5 37.5 27.5 36.5004 27.3751C36.5 28 36.7774 27.972 36.5004 28.5C35.9731 28.4312 36.6399 29.0145 36.5004 28.5C38.2809 27.6093 40 27 41.8754 27.3751C41.5176 28.4308 40.7676 28.9308 39.6254 28.8751C39.6254 29.3751 39.6254 29.8751 39.6254 30.3751C39.6254 30.4583 39.6254 30.5418 39.6254 30.6251C38.0041 31.3718 36.8374 32.5801 36.1254 34.2501C34.6426 34.6943 33.3094 35.4028 32.1254 36.3751C29.9499 36.7771 28.4916 38.0271 27.7504 40.1251C26.5651 40.4323 26.0234 41.1823 26.1254 42.3751C25.5421 42.3751 24.9587 42.3751 24.3754 42.3751C24.3754 44.2918 24.3754 46.2083 24.3754 48.1251C20.9577 48.1668 17.541 48.1251 14.1254 48.0001C13.0169 47.8956 11.9336 47.6873 10.8754 47.3751C10.7948 45.9106 10.8782 44.4938 11.1254 43.1251C11.6131 42.8211 11.9881 42.4046 12.2504 41.8751C12.6233 43.2433 13.3733 44.3268 14.5004 45.1251C17.0261 44.1341 19.2344 42.6756 21.1254 40.7501C21.664 40.7211 22.164 40.8043 22.6254 41.0001C23.1687 40.5338 23.252 39.9923 22.8754 39.3751C23.5378 37.6916 23.7878 35.9416 23.6254 34.1251C25.0576 34.2943 26.4741 34.5443 27.8754 34.8751C28.3741 30.3883 28.7074 25.8883 28.8754 21.3751C29.5501 21.3836 30.1751 21.2169 30.7504 20.8751C31.0666 20.1349 31.3581 19.3849 31.6254 18.6251C32.9199 17.7919 33.7949 16.6252 34.2504 15.1251C36.4476 13.3133 37.4894 10.98 37.3754 8.1251C37.8821 8.08457 38.3821 8.12622 38.8754 8.2501C39.3426 8.90325 39.9261 9.44492 40.6254 9.8751C41.2276 11.0567 41.6026 12.3067 41.7504 13.6251C42.7444 14.6739 43.1194 15.9239 42.8754 17.3751Z" fill="#82697B"/>
<path fill-rule="evenodd" clip-rule="evenodd" d="M42.875 19.875C43.0752 21.3919 43.5753 22.8085 44.375 24.125C43.5972 25.066 42.9308 26.066 42.375 27.125C42.2083 27.2083 42.0417 27.2918 41.875 27.375C39.9887 27.9843 38.1555 28.7343 36.375 29.625C35.8478 29.5563 35.5145 29.2645 35.375 28.75C35.652 28.222 36.027 27.7635 36.5 27.375C36.5495 25.9798 37.2578 25.188 38.625 25C40.0612 22.8534 40.8528 20.4784 41 17.875C41.4473 17.4428 41.989 17.2761 42.625 17.375C42.5468 18.2605 42.6303 19.0938 42.875 19.875Z" fill="#806381"/>
<path opacity="0.966" fill-rule="evenodd" clip-rule="evenodd" d="M42.875 17.375C43.6298 18.9306 44.0882 20.5973 44.25 22.375C44.6152 22.7206 44.8235 22.6373 44.875 22.125C45.0725 22.4021 45.1975 22.7355 45.25 23.125C45.3748 24.2052 45.4165 25.2885 45.375 26.375C44.4195 26.7805 43.4195 27.0305 42.375 27.125C42.9308 26.066 43.5972 25.066 44.375 24.125C43.5753 22.8085 43.0752 21.3918 42.875 19.875C42.875 19.0417 42.875 18.2083 42.875 17.375Z" fill="#6F6972"/>
<path opacity="0.923" fill-rule="evenodd" clip-rule="evenodd" d="M0.875 24.125C0.875 26.875 0.875 29.625 0.875 32.375C1.4052 32.4187 1.9052 32.3353 2.375 32.125C3.8395 32.0445 5.25618 32.1277 6.625 32.375C5.5046 32.2585 4.5046 32.5085 3.625 33.125C2.95833 33.7082 2.29167 34.2918 1.625 34.875C1.07179 35.1933 0.48846 35.4433 -0.125 35.625C-0.125 34.5417 -0.125 33.4583 -0.125 32.375C0.0599747 29.609 0.393308 26.859 0.875 24.125Z" fill="#929482"/>
<path opacity="0.983" fill-rule="evenodd" clip-rule="evenodd" d="M45.375 26.375C47.2325 27.9243 48.149 29.9242 48.125 32.375C47.0998 31.2072 46.0997 29.999 45.125 28.75C44.5418 28.5833 43.9582 28.5833 43.375 28.75C42.7255 29.382 41.9755 29.757 41.125 29.875C40.5788 29.926 40.0788 30.0925 39.625 30.375C39.625 29.875 39.625 29.375 39.625 28.875C40.7672 28.9308 41.5173 28.4308 41.875 27.375C42.0417 27.2917 42.2083 27.2083 42.375 27.125C43.4195 27.0305 44.4195 26.7805 45.375 26.375Z" fill="#4E8457"/>
<path opacity="0.992" fill-rule="evenodd" clip-rule="evenodd" d="M48.1249 32.3751C48.7394 35.4823 49.3227 38.5656 49.8749 41.6251C49.8749 41.7918 49.8749 41.9583 49.8749 42.1251C49.5739 44.7643 48.2404 46.7226 45.8749 48.0001C40.7069 48.8933 35.5404 49.5183 30.3749 49.8751C30.0417 49.8751 29.7082 49.8751 29.3749 49.8751C28.0209 49.4708 26.6042 49.3041 25.1249 49.3751C24.972 46.9611 25.3054 44.6276 26.1249 42.3751C26.9017 42.4123 27.6517 42.2873 28.3749 42.0001C29.8447 40.2683 31.0947 38.3933 32.1249 36.3751C33.3089 35.4028 34.6422 34.6943 36.1249 34.2501C36.8369 32.5801 38.0037 31.3718 39.6249 30.6251C39.5517 32.1996 39.1767 33.6996 38.4999 35.1251C37.0197 35.3931 35.6447 35.8931 34.3749 36.6251C33.5672 37.0551 32.8589 37.6383 32.2499 38.3751C31.7082 39.7918 31.1667 41.2083 30.6249 42.6251C30.4059 42.8128 30.1559 42.9378 29.8749 43.0001C28.8784 43.1248 27.8784 43.1666 26.8749 43.1251C26.8334 44.2948 26.8752 45.4613 26.9999 46.6251C28.3982 47.4456 29.6064 47.2371 30.6249 46.0001C31.9522 45.7178 33.2857 45.4678 34.6249 45.2501C34.8954 44.9176 35.0622 44.5426 35.1249 44.1251C35.3509 43.9478 35.4342 43.6978 35.3749 43.3751C38.9207 43.4126 40.5874 41.6626 40.3749 38.1251C42.0977 38.2748 43.7644 38.0663 45.3749 37.5001C45.5832 37.2918 45.7917 37.0833 45.9999 36.8751C46.1247 35.3773 46.1664 33.8773 46.1249 32.3751C45.6332 32.4348 45.1747 32.3516 44.7499 32.1251C44.4277 31.4123 44.3027 30.6623 44.3749 29.8751C43.2917 29.8751 42.2082 29.8751 41.1249 29.8751C41.9754 29.7571 42.7254 29.3821 43.3749 28.7501C43.9582 28.5833 44.5417 28.5833 45.1249 28.7501C46.0997 29.9991 47.0997 31.2073 48.1249 32.3751Z" fill="#529F60"/>
<path fill-rule="evenodd" clip-rule="evenodd" d="M41.125 29.875C42.2083 29.875 43.4167 29.5 44.5 29.5C45 30 45.5 31 45.5 32C45.9248 32.2265 46.0082 32.1847 46.5 32.125C46.5415 33.6272 46.1248 35.3772 46 36.875C45.7917 37.0833 45.5833 37.2917 45.375 37.5C44 38.5 42.7227 38.6497 41 38.5C41.2125 42.0375 38.9207 43.4125 35.375 43.375C35.4343 43.6978 35.351 43.9478 35.125 44.125C35.0857 43.7817 35.1275 43.4482 35.25 43.125C36.2555 42.2442 37.2973 41.4107 38.375 40.625C38.9852 39.352 39.1935 38.0185 39 36.625C38.8125 36.4685 38.604 36.3435 38.375 36.25C37.015 36.091 35.6818 36.216 34.375 36.625C35.6447 35.893 36.5197 35.268 38 35C38.6768 33.5745 39.5517 32.1995 39.625 30.625C39.625 30.5417 39.625 30.4583 39.625 30.375C40.0788 30.0925 40.5788 29.926 41.125 29.875Z" fill="#56B065"/>
<path fill-rule="evenodd" clip-rule="evenodd" d="M6.625 32.375C7.84177 32.1473 8.84178 32.4805 9.625 33.375C10.2113 34.3408 10.628 35.3823 10.875 36.5C10.5897 38.2058 10.3397 39.914 10.125 41.625C9.875 41.625 9.625 41.625 9.375 41.625C9.375 40.7083 9.375 39.7918 9.375 38.875C9.8459 34.5653 7.92925 32.6485 3.625 33.125C4.5046 32.5085 5.5046 32.2585 6.625 32.375Z" fill="#769A76"/>
<path fill-rule="evenodd" clip-rule="evenodd" d="M3.625 33.1251C7.92925 32.6486 9.8459 34.5654 9.375 38.8751C8.69365 39.9324 7.86032 40.8906 6.875 41.7501C5.11907 41.9579 3.36907 41.9161 1.625 41.6251C1.27977 40.5659 1.02976 39.4826 0.875 38.3751C0.88874 37.6601 1.13874 37.0769 1.625 36.6251C1.66853 37.2154 1.75186 37.7986 1.875 38.3751C3.6026 37.9479 5.26927 38.1146 6.875 38.8751C8.20712 38.2934 8.66548 37.2934 8.25 35.8751C7.92028 35.3784 7.46193 35.0866 6.875 35.0001C5.1008 34.9629 3.3508 35.1711 1.625 35.6251C1.625 35.3751 1.625 35.1251 1.625 34.8751C2.29167 34.2919 2.95833 33.7084 3.625 33.1251Z" fill="#58AE69"/>
<path fill-rule="evenodd" clip-rule="evenodd" d="M9.62506 33.375C10.6251 33.375 11.6251 33.375 12.6251 33.375C13.0678 35.0317 12.9011 36.615 12.1251 38.125C11.6346 39.7545 11.3013 41.421 11.1251 43.125C10.8778 44.4937 10.7945 45.9105 10.8751 47.375C10.6251 47.375 10.3751 47.375 10.1251 47.375C9.52741 46.7095 9.27741 45.9178 9.37506 45C9.44509 43.8325 9.69509 42.7075 10.1251 41.625C10.3397 39.914 10.5897 38.2057 10.8751 36.5C10.6281 35.3822 10.2114 34.3407 9.62506 33.375Z" fill="#92898B"/>
<path fill-rule="evenodd" clip-rule="evenodd" d="M1.625 36.6251C1.625 36.2918 1.625 35.9583 1.625 35.6251C3.3508 35.1711 5.1008 34.9628 6.875 35.0001C7.46193 35.0866 7.92028 35.3783 8.25 35.8751C8.66548 37.2933 8.20712 38.2933 6.875 38.8751C5.26927 38.1146 3.6026 37.9478 1.875 38.3751C1.75186 37.7986 1.66853 37.2153 1.625 36.6251Z" fill="#5FC06D"/>
<path opacity="0.964" fill-rule="evenodd" clip-rule="evenodd" d="M1.625 34.875C1.625 35.125 1.625 35.375 1.625 35.625C1.625 35.9582 1.625 36.2918 1.625 36.625C1.13874 37.0768 0.88874 37.66 0.875 38.375C1.02976 39.4825 1.27977 40.5658 1.625 41.625C3.36907 41.916 5.11907 41.9577 6.875 41.75C7.86032 40.8905 8.69365 39.9323 9.375 38.875C9.375 39.7918 9.375 40.7082 9.375 41.625C8.29945 43.112 7.63278 44.7787 7.375 46.625C3.53805 45.952 1.03805 43.7852 -0.125 40.125C-0.125 38.625 -0.125 37.125 -0.125 35.625C0.48846 35.4433 1.07179 35.1933 1.625 34.875Z" fill="#59A062"/>
<path fill-rule="evenodd" clip-rule="evenodd" d="M35.1248 44.1248C35.0621 44.5423 34.8953 44.9173 34.6248 45.2498C33.5 45.4997 32.3273 46.2175 31 46.4997C29.9815 47.7367 28.3982 47.8202 27 46.9997C26.8752 45.836 26.4585 44.1696 26.5 42.9998C27.5 42.6248 28.6251 41.4996 29.5 41.9997C29.6251 40.9996 30.281 42.1875 30.5 41.9997C31.0417 40.583 31.7081 39.7916 32.2498 38.3748C32.8588 37.6381 33.5671 37.0548 34.3748 36.6248C35.6816 36.2158 37.5 35.5 38.3748 36.2498C38.5 35.9998 39.5 36.4997 38.9998 36.6248C39.1933 38.0183 39.6102 39.727 39 41C37.9223 41.7857 36.5055 42.119 35.5 42.9997C35.3775 43.323 35.0856 43.7816 35.1248 44.1248Z" fill="#5BBB6A"/>
<path fill-rule="evenodd" clip-rule="evenodd" d="M32.1254 36.375C31.0952 38.3932 29.8452 40.2682 28.3754 42C27.6522 42.2873 26.9022 42.4123 26.1254 42.375C26.0234 41.1823 26.5652 40.4322 27.7504 40.125C28.4917 38.027 29.9499 36.777 32.1254 36.375Z" fill="#747471"/>
<path opacity="0.983" fill-rule="evenodd" clip-rule="evenodd" d="M9.375 41.625C9.625 41.625 9.875 41.625 10.125 41.625C9.69502 42.7075 9.44502 43.8325 9.375 45C9.27735 45.9178 9.52735 46.7095 10.125 47.375C10.125 47.625 10.125 47.875 10.125 48.125C9.08545 47.832 8.16878 47.332 7.375 46.625C7.63278 44.7787 8.29945 43.112 9.375 41.625Z" fill="#748975"/>
<path opacity="0.937" fill-rule="evenodd" clip-rule="evenodd" d="M26.5 42C25.6805 44.2525 24.972 46.961 25.125 49.375C20.9513 49.4527 16.7846 49.3277 12.625 49C11.7227 48.8248 10.8894 48.533 10.125 48.125C10.125 47.875 10.125 47.625 10.125 47.375C10.375 47.375 10.625 47.375 10.875 47.375C12 46.5 13.3915 46.8955 14.5 47C17.9156 47.125 19.0823 46.5417 22.5 46.5C22.5 44.5833 23.5 43.4167 23.5 41.5C24.0833 41.5 25.9168 42 26.5 42Z" fill="#82697B"/>
</g>
<defs>
<clipPath id="clip0_149_2024">
<rect width="50" height="50" fill="white"/>
</clipPath>
</defs>
</svg>
