<svg width="72" height="69" viewBox="0 0 72 69" fill="none" xmlns="http://www.w3.org/2000/svg">
  <path d="M35.0489 0.92705C35.3483 0.00573921 36.6517 0.00574017 36.9511 0.927051L44.756 24.9483C44.8899 25.3604 45.2739 25.6393 45.7071 25.6393H70.9646C71.9333 25.6393 72.3361 26.8789 71.5524 27.4483L51.1186 42.2943C50.7682 42.549 50.6215 43.0003 50.7554 43.4123L58.5604 67.4336C58.8597 68.3549 57.8052 69.1211 57.0215 68.5517L36.5878 53.7057C36.2373 53.451 35.7627 53.451 35.4122 53.7057L14.9785 68.5517C14.1948 69.1211 13.1403 68.3549 13.4396 67.4336L21.2446 43.4123C21.3785 43.0003 21.2319 42.549 20.8814 42.2943L0.447639 27.4483C-0.336074 26.8789 0.0667009 25.6393 1.03542 25.6393H26.2929C26.7261 25.6393 27.1101 25.3604 27.244 24.9483L35.0489 0.92705Z" fill="#D9D9D9"/>
</svg>
