<svg width="75" height="100" viewBox="0 0 75 100" fill="none" xmlns="http://www.w3.org/2000/svg">
<rect x="23.9268" y="55.2146" width="26.9939" height="44.7853" rx="4" fill="url(#paint0_linear_143_1946)"/>
<path d="M5.82789 85.2776C-17.3545 86.2669 36.1086 21.4724 36.1086 21.4724C36.1086 21.4724 92.7696 86.1147 69.0389 85.2776C65.298 85.1456 59.5762 83.3871 59.5762 83.3871C62.1227 88.7841 55.4653 95.4025 47.5276 88.7841C43.935 96.0042 29.5644 95.5529 29.5644 87.28C22.454 94.4248 10.8528 89.9123 14.9121 83.3871C14.9121 83.3871 9.42233 85.1242 5.82789 85.2776Z" fill="url(#paint1_linear_143_1946)"/>
<path d="M11.526 61.8635C-7.47601 62.6705 36.3462 9.81592 36.3462 9.81592C36.3462 9.81592 82.7897 62.5463 63.3383 61.8635C60.2719 61.7559 55.582 60.3214 55.582 60.3214C57.6693 64.7239 52.2124 70.1227 45.7061 64.7239C42.7613 70.6135 30.9822 70.2454 30.9822 63.4969C25.1539 69.3251 15.6447 65.6441 18.9721 60.3214C18.9721 60.3214 14.4722 61.7384 11.526 61.8635Z" fill="url(#paint2_linear_143_1946)"/>
<path d="M20.3305 34.2027C7.78921 34.733 36.7119 0 36.7119 0C36.7119 0 67.3646 34.6514 54.5266 34.2027C52.5029 34.132 49.4075 33.1893 49.4075 33.1893C47.9331 45.7556 40.1929 42.8167 36.7119 39.2698C27.5383 46.161 25.1084 37.7497 25.2449 33.1893C25.2449 33.1893 22.2751 34.1205 20.3305 34.2027Z" fill="url(#paint3_linear_143_1946)"/>
<defs>
<linearGradient id="paint0_linear_143_1946" x1="26.074" y1="96.0121" x2="48.4666" y2="98.1594" gradientUnits="userSpaceOnUse">
<stop stop-color="#6A341E"/>
<stop offset="1" stop-color="#4B2121"/>
</linearGradient>
<linearGradient id="paint1_linear_143_1946" x1="12.4744" y1="36.3506" x2="71.1243" y2="87.8411" gradientUnits="userSpaceOnUse">
<stop stop-color="#4A975A"/>
<stop offset="1" stop-color="#286746"/>
</linearGradient>
<linearGradient id="paint2_linear_143_1946" x1="16.974" y1="21.9525" x2="64.8456" y2="64.1837" gradientUnits="userSpaceOnUse">
<stop stop-color="#6BB458"/>
<stop offset="1" stop-color="#42934B"/>
</linearGradient>
<linearGradient id="paint3_linear_143_1946" x1="23.9262" y1="7.97546" x2="55.4014" y2="35.8629" gradientUnits="userSpaceOnUse">
<stop stop-color="#97CA58"/>
<stop offset="1" stop-color="#7BBA45"/>
</linearGradient>
</defs>
</svg>
